<svg xmlns="http://www.w3.org/2000/svg" viewBox="0 0 1187 1094" role="img" aria-label="AnarBib">
<title>AnarBib</title>
<path fill="#000000" d="M655 3C655.4 3 655.4 3 657.2 3.3C735.3 12.5 811.7 36.7 880 76C880.4 76.2 880.4 76.2 882.6 77.5C909 92.6 933.9 110.2 957.3 129.6C958.8 130.9 960.4 132.1 962 133.4C967.6 137.9 973 142.6 978.2 147.6C981 150.2 983.8 152.7 986.6 155.1C991.8 159.6 996.6 164.4 1001.4 169.2C1003 170.8 1004.6 172.4 1006.2 174C1007.2 175 1008.2 176 1009.2 177C1010.2 177.9 1011.1 178.8 1012 179.8C1014 182 1014 182 1014 184C1014.7 184 1015.3 184 1016 184C1017.4 185.4 1017.4 185.4 1019.1 187.4C1021.8 190.6 1024.6 193.8 1027.5 196.9C1031.1 200.9 1034.4 205 1037.6 209.3C1039 211 1039 211 1041 212C1041.4 212.7 1041.8 213.3 1042.2 214C1044.6 218.1 1047.6 221.6 1050.5 225.3C1055.8 232.1 1060.8 238.9 1065.6 246C1067.3 248.5 1068.9 250.9 1071 253C1075 259.2 1075 259.2 1075 262C1075.7 262 1076.3 262 1077 262C1077.3 262.6 1077.6 263.1 1077.9 263.7C1080.8 269.1 1083.8 274.3 1087 279.6C1094.5 291.7 1101 304.3 1107.5 317C1108.7 319.5 1110 321.9 1111.2 324.3C1152.5 403.6 1168.3 496.5 1143 741.6C1142 744.7 1141 747.9 1140 751.1C1139.1 753.8 1138.2 756.6 1137.3 759.3C1129.8 782.9 1119.9 805.5 1108.8 827.5C1106.7 831.6 1104.8 835.7 1103 840C1102.3 840 1101.7 840 1101 840C1100.9 840.4 1100.9 840.4 1100.4 842.3C1098.4 847.5 1095.5 852.1 1092.6 856.8C1092 857.8 1091.4 858.9 1090.7 859.9C1082.6 873 1073.8 885.3 1064.1 897.2C1060.8 901.2 1057.7 905.3 1054.6 909.4C1050.3 915.1 1045.9 920.6 1041.4 926.1C1036 932.7 1030.8 939.5 1025.7 946.4C1022.9 950.1 1020 953.8 1017.1 957.4C1016 959 1016 959 1016 961C1018 962.5 1018 962.5 1020.9 964.4C1022 965.1 1023 965.8 1024.1 966.5C1024.7 966.9 1025.3 967.3 1026 967.7C1029.9 970.2 1033.8 972.9 1037.8 975.5C1039.3 976.6 1040.9 977.6 1042.5 978.7C1043.7 979.4 1044.8 980.2 1046 981C1044.4 984.4 1042.4 987.1 1040 990C1052.2 1000.1 1064.3 1003.9 1079.4 1007.7C1087.3 1009.7 1094.9 1012.1 1102 1016C1103 1018 1103 1018 1102.8 1020.8C1103.1 1025 1104.9 1027.2 1108 1030C1111 1031.8 1114.1 1033.1 1117.3 1034.5C1124.7 1037.7 1131.2 1041.2 1137 1047C1137.6 1046.8 1138.1 1046.6 1138.7 1046.4C1149.5 1042.6 1161 1041.3 1172 1045C1177.9 1048.2 1182.5 1052.5 1184.4 1058.9C1184.7 1060.3 1185.1 1061.7 1185.4 1063.1C1185.6 1063.8 1185.7 1064.5 1185.9 1065.2C1186.8 1069.1 1187.3 1072.2 1186 1076C1184 1077.7 1182.3 1078.8 1180 1080C1179 1080.5 1178.1 1081 1177.1 1081.6C1166 1087.2 1157.2 1086.2 1145.1 1084.6C1143.9 1084.4 1142.8 1084.3 1141.5 1084.1C1138.3 1083.7 1135 1083.2 1131.8 1082.8C1128.2 1082.3 1124.6 1081.9 1121 1081.4C1114.7 1080.5 1108.4 1079.7 1102 1078.9C1092.7 1077.6 1083.3 1076.3 1073.9 1075.1C1058.5 1073.1 1043.2 1071 1027.8 1069C999 1065.1 970.3 1061.3 941.5 1057.5C929.3 1055.9 917.1 1054.3 904.9 1052.6C902.8 1052.4 900.8 1052.1 898.8 1051.8C869.9 1048 841 1044.2 812.1 1040.3C807.5 1039.7 802.8 1039.1 798.1 1038.5C794.8 1038 791.5 1037.6 788.2 1037.1C783.9 1036.6 779.7 1036 775.4 1035.5C766 1034.2 756.6 1033 747.2 1031.7C743 1031.1 738.8 1030.5 734.6 1030C732.6 1029.7 730.6 1029.4 728.7 1029.2C725.9 1028.8 723.2 1028.4 720.5 1028.1C719.7 1028 718.9 1027.9 718.1 1027.7C714.4 1027.2 710.8 1026.9 707 1027C704.1 1031.8 703.7 1034.6 705 1040C705.3 1040.3 705.7 1040.7 706 1041C706.9 1049.3 706.1 1055.4 701 1062C684.2 1082 659.2 1089.6 634 1092C630.9 1092.2 627.8 1092.2 624.7 1092.2C623.9 1092.2 623 1092.3 622 1092.3C619.1 1092.3 616.2 1092.3 613.3 1092.3C612.8 1092.3 612.8 1092.3 610.3 1092.3C591.9 1092.3 573.9 1091.1 555.7 1089.2C555.2 1089.2 555.2 1089.2 553 1088.9C552.1 1088.8 551.2 1088.8 550.3 1088.7C542.3 1087.9 534.2 1087.5 526.1 1087.6C516 1087.5 508.4 1082.3 501.3 1075.5C490.9 1064.3 483 1045.4 483 1030C482.3 1030.3 481.7 1030.7 481 1031C479.2 1031.3 477.5 1031.5 475.7 1031.6C474.6 1031.7 473.5 1031.9 472.3 1032C471.1 1032.1 469.9 1032.2 468.6 1032.3C466.6 1032.5 464.6 1032.8 462.6 1033C460.5 1033.2 458.4 1033.4 456.2 1033.6C431.6 1036.1 407 1038.9 382.4 1042C381.8 1042.1 381.8 1042.1 378.9 1042.5C338.7 1047.5 298.7 1053.6 258.8 1060C247.3 1061.9 235.7 1063.8 224.2 1065.6C223 1065.8 221.8 1066 220.6 1066.2C171.4 1074.1 122.1 1081.7 72.8 1088.9C70.3 1089.3 67.8 1089.7 65.3 1090C61.4 1090.6 57.5 1091.2 53.6 1091.7C52.2 1091.9 50.8 1092.2 49.4 1092.4C34.2 1094.6 21.5 1095 8.4 1086.2C0.3 1078.6 0.3 1078.6 -0.3 1073.2C0 1069 0.6 1065.8 2.6 1062C9.3 1056.5 16.6 1056.4 25 1057C26.3 1057.3 27.7 1057.6 29 1058C45.7 1059.3 60.4 1050 73 1040C73.6 1039.4 74.1 1038.9 74.7 1038.3C76 1037 76 1037 78 1037C78 1036.3 78 1035.7 78 1035C79.4 1033.7 79.4 1033.7 81.3 1032.1C85 1029 88.3 1025.7 91.5 1022.2C92 1021.7 92.4 1021.2 92.9 1020.6C95.7 1017.5 98.3 1014.3 100.8 1010.9C105 1005.5 110.2 1001.7 115.6 997.6C119.9 994.3 124 990.7 128 987C127.4 986.7 126.9 986.4 126.3 986.1C120.2 982.6 120.2 982.6 118.9 979.2C119 977 119 977 120 976C121.4 976 122.7 976.1 124.1 976.2C132.5 976.2 138.3 971.2 144.9 966.4C147 965 147 965 149 965C148.7 964 148.7 964 147 959C146.2 959 145.5 958.9 144.7 958.9C143.7 958.8 142.7 958.7 141.7 958.6C140.7 958.6 139.7 958.5 138.7 958.4C136 958 136 958 133 956C133.2 952.4 133.5 950.5 136.1 947.9C139.6 945.6 143.2 943.8 147 942C147 938.9 145 937.7 142.9 935.4C119.1 910 100.6 878.5 84 848C83.8 847.6 83.8 847.6 82.8 845.8C76.3 833.8 70.4 821.5 65 809C64.7 808.2 64.3 807.5 64 806.7C57.7 792.4 52.3 777.7 47 763C46.7 762.1 46.4 761.2 46 760.3C18.8 683.9 9.5 600 57.8 344.7C58.9 342.2 60 339.7 61.1 337.2C65.8 326.2 71.3 315.6 77 305C77.4 304.3 77.8 303.5 78.2 302.8C87.6 285.3 97.6 268.2 109.4 252.1C111.3 249.4 112.9 247.2 114 244C114.7 244 115.3 244 116 244C116.3 243.4 116.6 242.8 116.8 242.2C117.9 240.1 119.1 238.4 120.5 236.5C121 235.8 121.5 235.2 122 234.5C122.5 233.8 123 233.1 123.6 232.4C124.1 231.7 124.6 231 125.2 230.3C132.2 221 139.7 212.2 147.3 203.4C150.3 200 153.2 196.5 155.9 192.9C158.6 189.3 161.5 186.7 165 184C165.3 183.3 165.7 182.7 166 182C166.7 182 167.3 182 168 182C168.3 181 168.7 180 169 179C169.7 179 170.3 179 171 179C171.2 178.5 171.4 177.9 171.6 177.4C173.5 174.2 176 171.8 178.6 169.2C179.2 168.7 179.7 168.1 180.3 167.6C183.7 164.2 187.1 161 190.8 158C193.2 155.8 195.6 153.6 198 151.3C203.6 146.1 209.2 141 215.2 136.2C217.7 134.2 220.2 132.2 222.6 130.1C256.4 101 295.6 76.6 335.7 57.1C338.3 55.9 340.9 54.6 343.5 53.3C390.8 29.9 441 14.4 493 6C494 5.8 495 5.7 496 5.5C502.7 4.4 509.3 3.7 516 3C516.7 2.9 517.3 2.9 518 2.8C563.3 -1.7 609.7 -2.3 655 3Z"/>
<path fill="#E52321" d="M756 243C758.2 244 760.4 245.1 762.6 246.1C779.5 254.6 795 265.5 810 277C810.7 277.5 811.3 278 812 278.5C819.1 283.9 826 289.6 832.7 295.4C834.9 297.2 837 299 839.4 300.7C839.6 300.9 839.6 300.9 841 302C841 302.7 841 303.3 841 304C841.6 304.2 842.1 304.5 842.7 304.7C845.5 306.3 847.3 308.1 849.5 310.3C850.4 311.1 851.2 312 852.1 312.9C853 313.8 853.9 314.7 854.8 315.6C855.7 316.5 856.6 317.4 857.5 318.3C862.5 323.4 867.4 328.5 872 334C872.8 334.9 873.6 335.8 874.4 336.8C902.7 370 924.6 409.5 938 451C938.3 452.1 938.7 453.1 939.1 454.2C944.6 471.6 948.8 489.1 952 507C952.1 507.5 952.1 507.5 952.5 509.8C964.2 576.8 957.8 648.3 929 710C928.8 710.4 928.8 710.4 927.9 712.5C910.8 749.6 889.3 784.9 864 817C858.9 815.6 855.3 813.4 851.1 810.3C850.8 810.1 850.8 810.1 849.2 809C845.3 806.1 841.8 803.1 838.6 799.6C836.2 797.2 833.6 795 831.1 792.8C829.6 791.5 828.2 790.3 826.9 789C826.2 788.4 825.5 787.8 824.8 787.1C824.1 786.5 823.5 786 822.9 785.4C820.8 783.8 819.6 783.3 817 783C815 784.2 815 784.2 812.9 786.1C783.8 810 741.6 815 705.8 822.2C691.4 825.1 677.1 828 663.1 832.8C662.1 833.1 661.1 833.4 660.1 833.8C651.2 836.8 642.7 840.4 634.1 844.1C629.1 846.2 624.1 848.1 619 850C620.7 846 623.4 842.8 626.1 839.4C626.6 838.8 627 838.2 627.6 837.5C631.2 833 634.9 828.5 638.6 824C641.6 820.3 644.5 816.7 647.5 813C651.2 808.5 654.8 804 658.5 799.5C662.1 795.1 665.8 790.6 669.4 786.2C669.9 785.5 670.5 784.8 671.1 784.1C674.2 780.2 677.3 776.3 680.4 772.4C682.2 770.1 684 767.8 685.8 765.5C686.9 764.2 687.9 762.8 688.9 761.4C695.9 752.3 706.3 747.8 716.2 742.5C720.5 740.2 724.7 737.8 728.8 735.4C732.8 733.2 736.7 731.2 740.8 729.2C754.3 722.6 761 717.1 765.9 702.8C768.1 697.1 771 691.8 773.8 686.4C776 682 778.2 677.6 780.4 673.2C781.4 671.2 782.4 669.3 783.3 667.4C783.8 666.4 784.3 665.4 784.8 664.4C785.8 662.4 786.8 660.5 787.8 658.5C796.2 641.8 804.4 625 812.2 608.1C815.1 601.9 818.1 595.9 821.3 589.9C825.3 582.4 829 574.8 832.6 567.2C836.8 558.3 841.2 549.5 845.7 540.7C847.1 537.8 848.6 534.9 850 532C850.4 531.3 850.7 530.6 851.1 529.8C852.2 527.5 853 525.5 853 522.9C851.4 519.9 849.2 517.5 847 514.9C846 513.8 845 512.6 844 511.4C843.5 510.9 843 510.3 842.4 509.7C840.4 507.3 838.5 504.9 836.5 502.5C833.2 498.5 829.9 494.5 826.5 490.5C823.1 486.5 819.7 482.5 816.4 478.4C815.6 477.5 814.9 476.6 814.2 475.7C812.7 473.8 811.2 471.9 809.8 469.9C804.3 462.4 804.3 462.4 800.2 461.1C797.7 460.8 795.5 460.8 793 461C794.3 457.4 795.9 454.4 798.1 451.2C798.4 450.8 798.4 450.8 799.8 448.8C800 448.5 800 448.5 801 447C799.3 443 796.6 439.8 793.9 436.4C793.4 435.8 792.9 435.1 792.4 434.5C790.9 432.7 789.5 430.8 788 429C787.3 428.1 786.6 427.3 785.9 426.4C784.6 424.8 783.4 423.2 782.1 421.6C779.1 417.8 776.1 414 773.1 410.2C769.6 405.7 766 401.3 762.4 396.9C761 395 761 395 761 393C757.7 392.7 754.4 392.3 751 392C753.8 382.4 753.8 382.4 755.2 379.4C757 373.9 756.6 368.2 754 363C752.1 361.6 752.1 361.6 749.7 360.5C748.8 360 747.9 359.6 747 359.2C746 358.7 745.1 358.3 744.1 357.8C742 356.8 740 355.9 738 354.9C737 354.4 736 353.9 734.9 353.4C730.8 351.4 726.7 349.2 722.6 347.1C714.2 342.6 705.6 338.3 697 334C696 333.5 695.1 333.1 694.1 332.6C693.2 332.1 692.4 331.7 691.5 331.3C689 330 689 330 686.3 328.3C684 327 684 327 681.9 327.2C681.3 327.5 680.7 327.7 680 328C678.7 328.3 677.3 328.7 676 329C675.8 327.9 675.7 326.9 675.5 325.8C674.6 322.6 673.5 321.3 670.6 319.6C669.2 318.9 667.8 318.2 666.4 317.6C665.6 317.2 664.8 316.8 664.1 316.4C661.7 315.3 659.4 314.1 657 313C655.1 312.1 653.2 311.1 651.3 310.1C650 309.5 648.7 308.9 647.4 308.3C643.4 306.3 639.4 304.1 635.6 301.8C623.4 294.6 615 291.2 601 294.6C598.1 295.2 595.2 295.3 592.2 295.5C587.8 296.3 586 297.5 583.4 301.2C581.5 304.3 579.8 307.4 578.4 310.8C576.3 315.3 574.1 319.1 570 322C561.8 324.5 552.8 323.5 544.4 323.1C540.9 322.9 537.4 322.9 533.9 322.8C531.7 322.7 529.6 322.7 527.4 322.6C521.1 322.4 517.5 323.2 512.7 327.4C512.1 327.9 511.6 328.5 511 329C509.9 330 508.8 330.9 507.7 331.9C506.7 332.9 505.7 333.8 504.6 334.8C503.5 335.9 502.4 336.9 501.2 338C500.7 338.5 500.1 339 499.6 339.5C494.6 344.2 489.4 348.8 484.2 353.2C479.8 357.1 475.5 361.2 471.1 365.2C467.5 368.6 463.8 372 460 375.2C457.4 377.6 454.7 380 452.1 382.4C445.5 388.4 438.9 394.5 432.1 400.4C428.2 403.8 424.4 407.3 420.6 410.8C415.7 415.2 410.9 419.6 406 424C405.2 424.8 404.3 425.5 403.4 426.3C402.6 427.1 401.7 427.8 400.9 428.6C400.1 429.3 399.4 430 398.6 430.7C396 433 396 433 394 434C390.8 436.1 388.5 438.1 387.5 441.9C386.7 448.1 386.9 454.3 387 460.4C387 462.5 387 464.5 387 466.6C386.9 470.9 387 475.1 387 479.4C387.1 484.9 387 490.3 387 495.7C386.8 536.3 386.8 536.3 393.9 554.1C395.9 559.5 397.4 565 398.9 570.4C399.7 573.2 400.5 575.9 401.3 578.7C401.9 580.8 402.5 582.9 403.1 585C405.2 592.3 407.3 599.6 409.4 606.9C409.6 607.6 409.8 608.3 410 609C413.3 620.5 416.6 632 420 643.5C420.1 643.8 420.1 643.8 420.6 645.5C421.1 647.3 421.7 649.1 422.2 650.9C422.5 652 422.8 653 423.1 654.1C423.7 656 424.3 657.9 424.9 659.9C425.2 660.7 425.5 661.6 425.8 662.5C426 663.3 426.2 664 426.5 664.8C427.4 668.6 427.5 671.1 425.5 674.5C424.8 675.4 424.1 676.3 423.3 677.2C422.5 678.3 421.6 679.3 420.8 680.4C420.4 681 419.9 681.5 419.4 682.1C416.8 685.5 414.3 689.1 411.8 692.6C407.2 699 402.5 705.4 397.8 711.8C393 718.3 388.2 724.8 383.5 731.4C380.6 735.5 377.7 739.6 374.7 743.8C374.1 744.5 373.6 745.3 373 746C371.9 747.6 370.8 749.1 369.7 750.7C367.5 753.7 365.3 756.7 363.1 759.8C362 761.3 361 762.8 359.9 764.3C357.2 768 354.5 771.7 351.8 775.5C345.5 784.2 339.2 792.8 332.8 801.4C328.8 806.9 324.8 812.4 321 818C317.9 816.6 316 815.2 313.9 812.6C311.1 809.3 308.3 806.1 305.3 803C250.5 742.7 220.2 641.3 221.1 550.6C222.8 518.8 228.6 487.2 239 457C239.3 456.2 239.6 455.3 239.9 454.4C255.2 409.2 279.8 365.5 312.6 330.6C314.5 328.5 316.4 326.4 318.2 324.3C322.4 319.5 326.9 315 331.4 310.4C332.2 309.6 333.1 308.8 333.9 308C355.3 286.6 380.2 268.8 406 253C406.8 252.5 407.6 252 408.5 251.5C489.7 202 587.5 194.2 756 243Z"/>
<path fill="#000000" d="M588.8 20.7C590.1 20.7 591.4 20.7 592.7 20.7C614.3 20.7 635.6 21.5 657 24C657.4 24 657.4 24 659.3 24.3C670.9 25.6 682.5 27.3 694 29C694.6 29.1 694.6 29.1 697.9 29.6C746.9 37 792.7 52.9 837 75C837.8 75.4 838.7 75.8 839.5 76.3C861.3 87.2 881.9 100.2 902 114C902.7 114.5 903.5 115 904.3 115.5C919.6 126.1 934.3 137.5 948.4 149.6C950.1 151 951.7 152.4 953.3 153.8C966.7 165.1 979.2 177.1 991.6 189.4C992.5 190.4 993.4 191.3 994.4 192.2C999.5 197.3 1004.3 202.5 1009 208C1010.5 209.6 1011.9 211.2 1013.4 212.8C1018.1 218.1 1022.6 223.5 1027 229C1027.4 229.5 1027.8 230 1028.2 230.5C1042 247.8 1054.7 265.7 1067 284C1066.7 284.7 1066.3 285.3 1066 286C1059.1 282.3 1053.5 277.9 1047.7 272.5C1036 261.6 1026.9 256.8 1010.7 257.1C1007.1 257.2 1003.6 257.5 1000.1 257.7C998.9 257.8 997.6 257.9 996.3 258C988.4 258.7 980.5 259.4 972.7 260.3C971.8 260.4 970.9 260.5 970.1 260.6C963 261.5 957.8 264.1 952.9 269.2C952.6 269.6 952.6 269.6 951.2 271.5C948.6 275 945.9 278.3 943 281.6C926.7 300.2 914.7 322.6 914.9 347.7C914.9 348.2 914.9 348.2 914.9 350.4C914.9 356.4 915.2 362.1 916 368C912.3 364.6 909.7 360.9 907 356.7C897.8 343.2 887.9 330.3 877 318C876.6 317.5 876.6 317.5 874.5 315.2C862.3 301.6 849.5 288.2 835 277C833.2 275.4 831.4 273.9 829.6 272.3C809.8 255.9 787.2 241.8 763.9 230.9C761.9 229.9 759.8 228.9 757.8 227.9C719.2 208.7 676.6 198.1 634 193C633.5 192.9 633.5 192.9 631.1 192.6C538.4 181.4 447.8 206.6 371.2 258.5C368.5 260.4 365.7 262.2 363 264C364.5 260.6 366.5 258.3 369 255.6C377.6 246.1 384.5 236.5 390.9 225.3C391.4 224.4 392 223.4 392.5 222.4C398.2 212.3 401.7 204.2 401.4 192.5C401.4 191.5 401.4 190.4 401.4 189.4C401.1 175.1 400.3 162.5 390.3 151.7C387.3 148.5 384.3 145.2 381.4 141.9C380.9 141.3 380.3 140.7 379.8 140C378.5 138.6 377.3 137.1 376.1 135.6C367.4 125.4 355.6 115.5 342 114C339.1 113.8 336.3 113.8 333.4 113.7C332.6 113.7 331.7 113.7 330.9 113.7C308.6 113.4 288.4 114.7 267.4 123.2C267 123.3 267 123.3 265 124C264.3 123.7 263.7 123.3 263 123C334 68.6 423.7 37.3 517.7 24.7C518.3 24.6 518.3 24.6 521.2 24.2C543.7 21.6 566.2 20.6 588.8 20.7Z"/>
<path fill="#FFFFFF" d="M619.8 6.8C620.7 6.8 621.5 6.8 622.4 6.9C701.7 10.9 778.8 31 902.1 98.7C904.3 100.2 906.5 101.7 908.7 103.3C933.8 120.6 957.7 139.6 980.1 160.3C982 162.1 983.9 163.8 985.8 165.5C992.1 171.2 998.3 177.2 1004.3 183.2C1005.1 183.9 1005.8 184.7 1006.6 185.5C1011.3 190.1 1015.7 195 1020 200C1021 201.1 1022 202.2 1023 203.4C1032 213.4 1040.1 224.1 1048 235C1048.5 235.7 1049 236.4 1049.5 237C1060.6 252.4 1070.8 268.8 1078.9 285.9C1081.9 292.1 1085.5 298 1089 304C1094 312.5 1098.7 321 1103 329.8C1104.1 332.3 1105.4 334.7 1106.6 337.2C1113.6 351.5 1119.6 366 1125 381C1125.4 382.1 1125.8 383.1 1126.2 384.2C1138.8 419.4 1146.4 456 1151.3 493C1151.3 493.6 1151.3 493.6 1151.7 496.5C1152.2 500.3 1152.6 504.1 1153 508C1153 508.4 1153 508.4 1153.3 510.5C1155.2 529.5 1155.4 548.4 1155.3 567.4C1155.3 568.9 1155.3 570.5 1155.3 572.1C1155.3 594.2 1155 616.1 1152 638C1151.8 639.6 1151.6 641.2 1151.4 642.8C1142.8 707.1 1125.7 769.7 1097 828C1096.5 829 1096 830 1095.5 831C1081.8 858.8 1065.1 886 1044.8 909.5C1039.6 915.7 1035.6 921.8 1031.9 928.8C1029.9 932.1 1027.8 934.4 1025 937C1024.4 937.6 1023.8 938.2 1023.3 938.8C1019.7 940.7 1016 940.8 1012 941C1014.1 937.3 1016.5 934.2 1019.3 930.9C1072.8 867.6 1109.7 788.7 1144.4 519.6C1139.7 464.1 1127.4 410.5 1106 359C1106 360 1106.1 361.1 1106.1 362.2C1106.5 377.8 1104.9 393.4 1100.7 408.5C1100 411 1099.7 413.4 1099.3 415.9C1095.5 434.8 1078 448.1 1063.2 458.6C1046.9 469.4 1027.5 475.9 1007.9 472.4C989.9 468.5 975.1 458.3 961.3 446.6C960.6 446.1 960 445.6 959.4 445.1C955.1 441.4 955.1 441.4 954 438C954 442.4 955.2 445.7 956.6 449.8C969.7 488 975.2 527.8 975.3 568.1C975.3 569.1 975.3 570.2 975.3 571.3C975.2 588.4 974.5 605 972 622C971.9 623 971.7 624 971.6 625.1C968.2 649.7 962 673.8 953 697C952.7 697.8 952.4 698.6 952.1 699.4C947.1 712.1 940.1 723.6 932.8 735.2C930.6 738.7 928.4 742.2 926.2 745.8C924.6 748.4 923 750.9 921.4 753.5C917.7 759.6 913.9 765.6 910.2 771.7C909.5 772.8 908.9 773.8 908.2 774.9C905 780.1 901.8 785.3 898.7 790.5C897.2 792.9 895.7 795.3 894.2 797.6C893.2 799.3 892.2 801 891.1 802.7C890.5 803.8 889.9 804.8 889.2 805.8C888.7 806.7 888.1 807.6 887.6 808.6C884.5 813.3 882.8 815.4 877.3 817.2C876.3 817.6 875.3 817.9 874.3 818.3C873.5 818.5 872.8 818.8 872 819C873.3 816.2 874.8 813.8 876.7 811.3C876.9 810.9 876.9 810.9 878.2 809.1C878.8 808.4 879.4 807.6 879.9 806.8C941.1 722.9 972.6 631 961 527C960.9 525.9 960.8 524.8 960.6 523.6C956 483.9 945.2 445.1 928 409C927.6 408.1 927.2 407.2 926.7 406.3C917.2 386 905.8 366.7 892 349C891.1 347.8 890.1 346.6 889.2 345.3C884.4 339.2 879.6 333.2 874.3 327.5C872.4 325.5 870.6 323.4 868.8 321.3C864.5 316.4 859.9 311.7 855.3 307.1C854.4 306.2 853.5 305.3 852.6 304.4C847.4 299.3 842.3 294.4 836.5 290C834.2 288.1 831.9 286.2 829.6 284.2C767.2 230.1 684.1 200.7 586.6 197.8C585.8 197.7 585 197.7 584.1 197.7C496 197.9 408.5 230.7 343.5 290.7C342.1 292 340.7 293.2 339.3 294.4C333.7 299.3 328.3 304.5 323.1 309.8C321.6 311.2 320.1 312.7 318.6 314.2C313 319.7 307.8 325.4 302.9 331.6C301.4 333.5 299.8 335.4 298.2 337.2C278.9 359.2 264 384.9 251 411C250.8 411.4 250.8 411.4 249.8 413.3C230.6 451.6 220.7 493.6 216 536C215.9 536.8 215.8 537.6 215.7 538.4C214.7 548.2 214.9 558.2 214.9 568.1C214.9 568.8 214.9 569.5 214.9 570.2C214.8 585.4 216.1 599.9 219.1 614.9C219.2 615.6 219.4 616.4 219.5 617.2C230.6 672.9 246.9 735.6 281 782C281.2 782.3 281.2 782.3 282.4 783.9C292.8 798.1 303.9 811.2 316 824C314 826.6 312 829.3 310 832C306.2 828.4 303 824.6 299.9 820.3C299.4 819.7 298.9 819 298.4 818.4C294.9 813.4 291.7 808.3 288.6 803C284.6 796.3 280.2 790.5 275 784.7C250.7 757.5 234.1 723.4 223 689C222.7 688 222.4 687.1 222 686.1C211.9 654.6 205.9 620.9 205.8 587.8C205.8 586.7 205.8 585.5 205.8 584.4C205.8 580.7 205.8 577.1 205.8 573.5C205.7 572.3 205.7 571 205.7 569.8C205.8 552 206.1 534.6 209 517C209.1 516.4 209.1 516.4 209.5 513.6C219.8 446.8 248.3 382.7 292 331C292.8 330 293.6 329 294.5 328C306.5 313.4 319.5 299.2 334 287C333.5 287.3 333 287.5 332.5 287.8C304.4 301.6 278.1 307.1 247.7 297.8C246.8 297.5 245.9 297.2 244.9 296.9C230.6 292.3 222.9 283.2 214.8 271C213.6 269.3 212.5 267.7 211.4 266C210.8 265.2 210.3 264.3 209.7 263.5C207.1 259.6 204.4 255.8 201.8 252C194.7 241.7 194.7 241.7 194.7 236.1C194.7 234.9 194.7 233.7 194.7 232.5C194.7 231.9 194.7 231.9 194.8 228.7C194.8 227.4 194.8 226.1 194.8 224.8C195.1 198.2 204.7 179.6 221 159C218 160.3 216 161.8 213.8 164.2C211.4 166.6 209 168.9 206.4 171.1C198 178.4 190 186.4 182.8 195C180.9 197.1 179 199.2 177.1 201.3C172.3 206.4 167.8 211.6 163.4 217C161.6 219.2 159.8 221.4 158 223.6C100.9 292.6 64.8 376.3 35 568C35 568.9 35 569.7 34.9 570.6C33.2 642.2 45.4 717.8 76.4 782.6C78 786 79.6 789.5 81.2 792.9C87.6 806.3 94.3 819.4 101.5 832.3C103 835 104.5 837.7 105.9 840.4C119.6 866.1 135.7 890.2 153.3 913.4C153.7 914 154.2 914.6 154.6 915.2C155.6 916.5 156.6 917.8 157.7 919.1C162 924.3 162 924.3 162.1 927.8C161.9 928.5 161.6 929.2 161.4 930C161.1 930.8 160.9 931.5 160.6 932.3C160.4 932.9 160.2 933.4 160 934C149.2 925.4 140.7 914.6 132.3 903.7C131.1 902.1 129.8 900.5 128.5 898.9C73.2 828.6 38.5 729.9 25 635C24.8 633.7 24.6 632.4 24.4 631.1C19 590.3 19.7 545.8 25 505C25.2 503.6 25.3 502.2 25.5 500.8C33.7 434.6 53 371.5 83 312C83.2 311.6 83.2 311.6 84.2 309.5C99.4 279.2 118.6 250.3 140 224C140.8 223.1 141.5 222.1 142.3 221.2C144.5 218.4 146.8 215.7 149 213C149.8 212 150.7 211 151.5 210C162.7 196.4 175 183.9 187.4 171.5C187.9 170.9 188.5 170.4 189.1 169.8C195.2 163.6 201.4 157.6 208 152C209.1 151 210.2 150.1 211.4 149.1C217.7 143.6 224.1 138.3 230.8 133.1C234.9 129.9 238.8 126.6 242.8 123.1C308.6 65.8 397.9 32.3 619.8 6.8ZM523 24C522.3 24.1 521.6 24.2 520.8 24.3C429.5 35.6 339.4 66.7 263 123C265 124 265 124 268.5 122.9C270.7 122.1 272.8 121.3 275 120.5C289.8 115.3 304.4 113.4 320 113.6C322.7 113.6 325.3 113.6 327.9 113.6C329.6 113.6 331.3 113.7 333 113.7C333.8 113.7 334.6 113.7 335.4 113.7C343.8 113.8 350.9 115.3 357.9 120.1C358.5 120.5 359.1 120.9 359.7 121.3C369.1 127.6 376.6 135.5 384 144C384.6 144.7 385.3 145.4 385.9 146.2C387.1 147.5 388.2 148.8 389.4 150.2C391 152 391 152 392.7 153.6C402.4 163.4 401.4 181.9 401.4 194.9C401.3 204 399.6 210.1 395 218C394 219.7 393.1 221.5 392.1 223.2C385.8 234.6 378.8 244.5 370 254C368.6 255.6 367.2 257.2 365.8 258.9C364.8 259.9 363.9 261 363 262C363.3 262.7 363.7 263.3 364 264C364.6 263.5 365.3 263 366 262.5C429.1 213.8 508.5 190.8 587.4 190.8C588.4 190.7 589.3 190.7 590.3 190.7C652.8 190.8 714.7 205.1 770.2 234.1C772 235 773.8 235.9 775.6 236.9C796.9 247.8 816.8 261.6 835 277C836 277.8 836.9 278.5 837.9 279.3C846.4 286.2 854.1 293.9 861.8 301.6C862.1 301.8 862.1 301.8 863.4 303.2C870.4 310.1 876.9 317.3 883 325C883.9 326 884.7 327.1 885.6 328.1C896.4 340.6 905.7 354.4 915 368C916.3 364.4 915.7 361.7 915 358C912.9 328.9 923.4 305 942 283C942.5 282.4 942.9 281.9 943.4 281.3C945 279.4 946.6 277.6 948.2 275.7C948.7 275.1 949.2 274.5 949.7 273.9C950.7 272.8 951.6 271.7 952.6 270.6C953.9 269.1 955.1 267.7 956.3 266.3C963.4 260.3 972.9 260.2 981.7 259.4C982.3 259.3 982.3 259.3 985.5 259C993.4 258.3 1001.3 257.6 1009.2 257.2C1010 257.1 1010.9 257.1 1011.8 257C1022.8 256.5 1032.1 258.9 1040.6 266.2C1042.4 267.9 1044.2 269.6 1046 271.3C1049.2 274.2 1052.5 276.9 1055.9 279.5C1056.4 279.9 1056.9 280.3 1057.5 280.8C1060.5 283.1 1063.4 284.8 1067 286C1065.3 280.9 1062.3 276.8 1059.3 272.4C1059 272 1059 272 1057.5 269.9C1047.3 255.1 1036.5 240.8 1025 227C1024.5 226.4 1024 225.8 1023.5 225.2C1017.8 218.3 1011.8 211.6 1005.7 204.9C1003.7 202.8 1001.8 200.6 999.9 198.4C995.3 193.1 990.3 188.1 985.2 183.1C983.6 181.4 981.9 179.8 980.2 178.1C974.7 172.5 969 167.1 963 162C961.4 160.5 959.8 159.1 958.2 157.6C952.9 152.9 947.5 148.4 942 144C940.9 143.1 939.8 142.2 938.6 141.3C880.3 93.8 812.9 57.1 740 38C739.5 37.9 739.5 37.9 736.9 37.2C703.8 28.7 669 24.5 635 22C634.4 22 634.4 22 631.6 21.7C618 20.7 604.4 20.8 590.8 20.8C590.2 20.8 590.2 20.8 586.8 20.7C565.4 20.8 544.3 21.4 523 24Z"/>
<path fill="#E52321" d="M543.4 350.5C544.3 350.5 545.2 350.4 546.1 350.4C547.1 350.4 548.1 350.4 549.1 350.4C549.6 350.3 549.6 350.3 552.1 350.3C554.3 350.3 556.4 350.2 558.6 350.2C561.8 350.2 565 350.1 568.2 350C582.8 349.7 593 352.6 605.6 359.7C609.2 361.6 612.8 363.3 616.5 364.9C617.9 365.5 619.2 366.1 620.5 366.7C620.8 366.9 620.8 366.9 622.5 367.6C632.8 372.3 643.2 377 653.4 381.8C653.9 382 653.9 382 656 383C656.4 383.2 656.4 383.2 658.4 384.1C659 384.5 659.7 384.8 660.4 385.1C663.8 387 664.8 389.3 665.9 393C666.9 399 665.1 402.2 661.7 407C659.4 410 657.1 413 654.7 415.9C653 418 653 418 651.3 421.1C649 424 649 424 645.9 424.8C644.7 424.8 643.5 424.8 642.2 424.8C641.6 424.9 640.9 424.9 640.2 424.9C638 424.9 635.7 424.9 633.5 424.9C631.9 425 630.4 425 628.8 425C625.4 425 622.1 425 618.8 425C615.4 425 612.1 425 608.7 425.1C585.3 425.5 565.8 422.8 544 414C544 414.6 544 414.6 544.1 417.4C544.2 426.5 542.2 431.8 535.9 438.4C529.4 444.8 523.6 449.9 515 453C514.1 453.3 513.2 453.7 512.3 454C511.6 454.3 510.9 454.5 510.1 454.7C509.4 455 508.7 455.2 507.9 455.5C506 456 506 456 503 456C507.6 469.1 513.1 481.8 518.7 494.6C521.3 500.7 523.9 506.8 526.5 513C530.3 522 534.1 531 538 540C542.2 549.8 546.4 559.6 550.5 569.4C556.5 583.6 562.6 597.9 568.6 612.1C571.2 618.2 573.8 624.3 576.4 630.5C577.5 633.1 578.6 635.6 579.7 638.2C580.4 639.9 581.2 641.6 581.9 643.3C585.5 651.7 589.1 660.2 592.7 668.7C593 669.3 593.3 670 593.6 670.7C594.9 673.8 596.3 676.8 597.6 679.9C598.1 681 598.5 682 599 683.1C599.4 684 599.8 684.9 600.2 685.8C601 688 601 688 601 690C600.6 690 600.6 690 598.9 690C592.3 689.9 585.6 689.9 579 689.9C575.6 689.9 572.2 689.9 568.8 689.9C564.9 689.8 561 689.9 557.1 689.9C555.8 689.9 554.6 689.9 553.4 689.8C545.1 690 545.1 690 542 692.9C540.4 695.2 539.2 697.5 538 700C537.4 700.9 536.8 701.8 536.2 702.7C535.7 703.5 535.3 704.2 534.8 705C534.2 705.9 533.7 706.8 533.1 707.6C532.5 708.5 532 709.4 531.4 710.4C530.8 711.3 530.2 712.3 529.5 713.3C524.2 721.7 518.8 730.2 513.5 738.7C511 742.6 508.5 746.6 506 750.5C505 752.1 504 753.7 503 755.2C497 764.7 497 764.7 495.5 767.1C494.5 768.7 493.5 770.3 492.5 771.9C490 775.8 487.6 779.7 485.1 783.6C484.1 785.1 483.2 786.6 482.2 788.2C481.7 789 481.2 789.7 480.7 790.5C477.9 795 475 799.6 472.2 804.1C471.5 805.2 470.9 806.2 470.2 807.3C468.9 809.3 467.7 811.3 466.4 813.4C465.2 815.3 464 817.2 462.8 819.1C461 822 461 822 459.4 825.3C455.3 833.1 455.3 833.1 451.2 834.7C445.8 835.9 440.2 835.9 434.7 836C432.1 836.1 429.4 836.2 426.8 836.4C425.1 836.4 423.3 836.5 421.5 836.6C413.7 836.9 406.1 837.9 398.4 839.1C397.3 839.3 396.2 839.5 395.1 839.6C390.7 840.3 386.3 841.1 382 842C382 838.4 382.7 837.7 384.8 835C385.4 834.2 386 833.4 386.6 832.5C387 832.1 387 832.1 388.6 829.9C389.3 829 390 828.1 390.7 827.2C395.6 820.7 400.6 814.3 405.6 807.9C410.9 801.1 416.1 794.3 421.3 787.5C424.9 782.7 428.6 777.9 432.2 773.2C436.4 767.8 440.5 762.4 444.5 756.9C450.1 749.5 455.8 742.2 461.4 734.9C466.4 728.4 471.4 721.9 476.2 715.3C479.1 711.5 481.9 707.8 484.8 704.1C485.5 703.3 486.1 702.5 486.8 701.7C488 700.1 489.3 698.5 490.5 696.9C491.1 696.2 491.7 695.5 492.3 694.8C492.8 694.1 493.3 693.5 493.8 692.9C495.1 690.8 495.7 689.4 496 687C495 684.1 493.8 681.5 492.6 678.7C491.7 676.8 490.9 674.9 490 673C489.6 671.9 489.1 670.8 488.6 669.7C485.4 662.3 482.4 654.8 479.3 647.3C478.6 645.6 477.9 643.9 477.2 642.2C476.2 639.6 475.1 637 474.1 634.5C470.7 626.3 467.4 618.2 464.1 610.1C463.8 609.4 463.5 608.8 463.2 608.1C455.5 589.4 447.8 570.7 440 552C439.7 551.3 439.4 550.6 439.1 549.9C437.4 545.8 435.7 541.7 434 537.6C433.6 536.6 433.2 535.6 432.8 534.6C432.4 533.8 432.1 532.9 431.7 532C431.4 531.3 431.1 530.5 430.8 529.8C430.2 528.5 429.6 527.2 429 526C427.3 516.3 426.6 506.5 426.1 496.7C426.1 496 426.1 495.2 426 494.5C425.2 475.4 427.1 460.8 440.3 446.3C449.9 436.1 460.8 427.2 471.8 418.7C474.4 416.7 476.7 414.4 479 412C479.8 411.2 480.6 410.5 481.4 409.7C483.5 407.5 485.5 405.3 487.5 403C490.2 399.9 492.9 396.8 496 394C496.7 394 497.3 394 498 394C498 393.3 498 392.7 498 392C499.6 390.4 499.6 390.4 501.7 388.7C504.9 385.9 508 383.1 511 380C511.4 379.6 511.4 379.6 513.4 377.7C515.5 375.5 517.5 373.3 519.4 371C522.4 367.6 525.6 364.9 529 362C530.8 360 532.6 357.9 534.4 355.9C534.7 355.6 534.7 355.6 536 354C536.4 353.5 536.9 353 537.3 352.4C539.5 350.6 540.6 350.6 543.4 350.5Z"/>
<path fill="#FFFFFF" d="M714.1 940.6C714.5 940.6 714.5 940.6 717 940.6C734.4 940.7 751.4 942 768.7 944.7C771.1 945 773.5 945.4 775.9 945.7C814.6 951.4 852.6 960.1 890.8 968.7C978.6 988.6 978.6 988.6 1008.9 987.9C1024.4 987.6 1033.9 989.3 1045.8 999.3C1049.7 1002.4 1053.9 1005 1058.1 1007.8C1059.6 1008.8 1061.2 1009.8 1062.7 1010.8C1063.2 1011.2 1063.2 1011.2 1066 1013C1062.9 1014.5 1059.9 1013.7 1056.6 1013.4C1055.8 1013.3 1055 1013.2 1054.2 1013.1C1051.6 1012.8 1049 1012.5 1046.4 1012.3C1044.5 1012.1 1042.7 1011.9 1040.8 1011.7C1035.8 1011.1 1030.7 1010.6 1025.7 1010C1022.6 1009.7 1019.4 1009.3 1016.2 1009C935.5 1000.2 854.9 990.5 774.8 976.5C774.2 976.4 774.2 976.4 771.2 975.8C765.8 974.9 760.4 973.9 755 972.8C745.3 970.8 736.1 969.4 726.2 969.6C725.6 969.6 725.6 969.6 722.7 969.7C692.7 970.3 692.7 970.3 687 976C688.3 976.1 689.5 976.2 690.8 976.3C756.6 981 821.5 990.6 886.6 1001.6C935.1 1009.8 983.9 1017.9 1033 1022C1034.3 1022.1 1035.5 1022.2 1036.8 1022.3C1040.4 1022.6 1043.9 1022.9 1047.5 1023.2C1048.6 1023.3 1049.7 1023.4 1050.8 1023.5C1055.8 1023.8 1060.8 1024 1065.9 1023.8C1081.6 1023.5 1091.7 1028.7 1104.6 1037.5C1107 1039 1109.3 1040 1112 1041C1112 1041.3 1112 1041.7 1112 1042C1099.9 1041.4 1088 1040 1076 1038.6C1073.9 1038.4 1071.8 1038.1 1069.7 1037.9C1065.1 1037.4 1060.6 1036.8 1056.1 1036.3C1044.2 1034.9 1032.3 1033.5 1020.5 1032.1C1018.4 1031.9 1016.4 1031.6 1014.4 1031.4C992.6 1028.9 970.8 1026.4 949 1023.9C947.5 1023.8 946 1023.6 944.5 1023.4C939.1 1022.8 933.8 1022.2 928.5 1021.6C856.5 1013.5 784.6 1005.1 712.8 994.9C707 994.1 701.1 993.3 695.3 992.5C693.2 992.2 691.1 991.9 689.1 991.6C686.6 991.2 684.2 990.9 681.8 990.6C680.5 990.4 679.3 990.2 678 990.1C674.8 990 673.2 990.4 670.6 992.1C665.7 997.9 666.1 1005.8 665.8 1012.9C665.7 1013.8 665.7 1014.6 665.7 1015.5C665.6 1017.3 665.5 1019 665.5 1020.7C665.3 1027.4 664.8 1034.3 659.7 1039.2C656.9 1041.1 654.8 1041.8 651.4 1042.5C650.8 1042.7 650.8 1042.7 647.9 1043.3C640.1 1044.8 632.2 1046.1 624.4 1047.4C613.3 1049.3 602.4 1051.2 591.4 1053.7C571.6 1058 552.7 1055.9 533.4 1050.6C529.6 1048.1 528.1 1045.2 527 1041C526.6 1035.4 526.7 1029.8 526.9 1024.1C527.4 1001 527.4 1001 523.2 994C520.3 991.4 518 989.9 514 990.1C511.6 990.4 509.1 990.7 506.7 991.1C505.8 991.3 504.8 991.4 503.9 991.6C500.9 992 498 992.5 495 993C493.1 993.3 491.2 993.6 489.4 993.9C484.4 994.7 479.4 995.5 474.4 996.3C469.7 997 465.1 997.8 460.4 998.5C457.9 999 455.4 999.4 452.8 999.8C399.8 1008.3 346.7 1016.7 293.6 1024.8C292.8 1024.9 292 1025.1 291.1 1025.2C275.5 1027.6 260 1030 244.4 1032.3C222.6 1035.7 200.7 1039 178.9 1042.4C167.5 1044.2 156 1045.9 144.6 1047.7C142.9 1047.9 141.2 1048.2 139.5 1048.4C138.6 1048.6 137.8 1048.7 136.9 1048.8C131.1 1049.7 125.2 1050.6 119.3 1051.5C112.2 1052.6 105.2 1053.7 98.1 1054.8C94.5 1055.4 90.9 1055.9 87.2 1056.5C83.3 1057.1 79.4 1057.7 75.5 1058.3C74.4 1058.4 73.2 1058.6 72 1058.8C71 1059 70 1059.1 68.9 1059.3C68 1059.4 67.1 1059.6 66.2 1059.7C64 1060 64 1060 62 1060C62.2 1055.9 62.6 1053.5 65.1 1050.2C72.3 1044.6 79.9 1043.9 88.7 1043.8C90.2 1043.7 91.6 1043.7 93.1 1043.7C95.4 1043.6 97.7 1043.6 100 1043.5C108.5 1043.4 116.8 1043.2 125 1041C125 1040.3 125 1039.7 125 1039C116.5 1038 107.9 1037.7 99.4 1037.4C98 1037.4 96.6 1037.4 95.2 1037.3C91.8 1037.2 88.4 1037.1 85 1037C86.7 1033.2 88.1 1031.7 92 1030C95 1030.2 95 1030.2 96.8 1030.6C106.5 1032.4 115.5 1031.9 125.1 1030.1C126.4 1029.9 127.6 1029.7 128.9 1029.5C132.3 1028.9 135.6 1028.3 139 1027.7C141.1 1027.4 143.3 1027 145.4 1026.6C193.9 1018.2 242.1 1008.6 290.1 998C347.8 985.2 405.9 977.6 465 976C465.9 976 466.8 975.9 467.7 975.9C476.3 975.6 484 976 492.3 978.3C498.1 979.4 504 979.5 510 979.5C516.4 979.7 521.9 980.9 528 983C529.3 983.3 530.7 983.7 532 984C481.6 959.2 427.8 966.6 374.2 974.9C358.1 977.4 342 979.7 325.9 981.2C325.5 981.3 325.5 981.3 323.3 981.5C317.2 982 311.1 982.1 305 982C308.5 979.7 311.8 978.9 315.8 977.9C316.6 977.7 317.4 977.5 318.2 977.3C320.8 976.6 323.4 976 326.1 975.4C327 975.2 327.9 974.9 328.8 974.7C357.5 967.8 386.6 961.6 416 959C416.9 958.9 417.8 958.8 418.7 958.7C445.8 956.3 475.5 955.4 502 962C502.9 962.2 503.8 962.4 504.7 962.7C516.7 965.7 528.4 969.7 539.9 974.2C541.3 974.7 542.8 975.3 544.2 975.8C551.6 978.4 555 982.6 559 989C560.6 988.7 562.3 988.3 564 988C564.3 987 564.7 986 565 985C564.4 984.7 563.9 984.5 563.3 984.2C561 983 558.8 981.7 556.6 980.2C502.3 945.6 443.7 945.8 381.8 955.1C378 955.7 374.2 956.2 370.5 956.8C368.2 957.1 365.9 957.5 363.6 957.8C362.5 958 361.5 958.1 360.4 958.3C359.5 958.4 358.6 958.6 357.7 958.7C354.8 959 351.9 959 349 959C352.8 956.7 357 956 361.3 955.2C361.7 955.1 361.7 955.1 363.8 954.7C366.4 954.2 369.1 953.6 371.8 953.1C372.7 952.9 373.6 952.8 374.5 952.6C388.6 949.8 402.7 947 417 945C417.8 944.9 418.6 944.8 419.4 944.6C464.2 938.3 519.1 940.9 556.9 968.4C562.3 972.5 567.2 976.9 572 981.7C572.5 982.2 573.1 982.7 573.6 983.3C582.9 992.8 582.9 992.8 583.1 998.1C583 998.6 583 998.6 582.6 1001.2C581.7 1008.3 583.3 1013.5 586 1020C587.3 1017.4 587.4 1015 587.8 1012.1C589.4 1001.1 593.5 992.3 601 984C601.7 983.2 602.4 982.4 603.1 981.6C612.3 971.8 624 964.7 635.4 957.8C638 956 638 956 640.5 953.7C650.2 945 661.5 944.4 674 943C675.4 942.8 676.8 942.6 678.3 942.5C690.2 941 702 940.6 714.1 940.6Z"/>
<path fill="#E52321" d="M592 536C596.8 539.9 600.9 544 604.9 548.8C605.9 550 607 551.2 608 552.5C608.5 553.1 609 553.7 609.5 554.3C611.5 556.6 613.6 558.9 615.7 561.2C619.5 565.4 623.1 569.8 626.8 574.3C629.6 577.8 632.7 581.1 635.8 584.5C638.1 587.1 640.3 589.7 642.4 592.4C646.3 597.2 650.4 601.7 654.5 606.3C656.9 608.9 659.2 611.6 661.4 614.4C664.7 618.4 668 622.2 671.5 626C675.9 630.7 680 635.5 684 640.5C686.6 643.7 689.3 646.9 692 650C688 633.1 683.2 616.5 678.1 599.9C677.9 599 677.6 598.1 677.3 597.1C676.8 595.4 676.3 593.7 675.7 592C674.6 588.5 674 585.7 674 582C683.5 582.7 692.9 584.1 702.3 585.7C703.9 585.9 705.6 586.2 707.3 586.4C711.6 587.1 715.9 587.8 720.3 588.5C723.8 589.1 727.3 589.6 730.9 590.2C760.6 594.9 760.6 594.9 773 597C774 600 774 600 772.9 602.7C772.3 603.8 771.8 604.9 771.2 606C770.9 606.6 770.6 607.1 770.2 607.7C769.2 609.7 768.2 611.6 767.2 613.5C766.5 614.8 765.8 616.2 765.1 617.5C763.4 620.8 761.6 624 759.9 627.3C758.3 630.3 756.7 633.3 755.1 636.4C754.4 637.8 753.6 639.2 752.8 640.7C750 646 747.3 651.4 744.5 656.8C741.9 661.8 739.3 666.8 736.7 671.8C734.8 675.5 732.9 679.2 731 683C725.9 692.8 721.4 699.9 712 706C710.5 707.1 708.9 708.1 707.4 709.2C704.9 710.9 702.5 712.6 700 714.2C695.2 717.4 690.6 720.8 686.1 724.4C684.4 725.7 682.6 726.9 680.8 728.1C672.5 733.5 669 739.6 665.2 748.3C663 753.2 660.7 757.9 658.4 762.7C657.5 764.5 656.6 766.4 655.7 768.2C649.5 781 643.2 793.8 636.8 806.5C635.2 809.6 633.6 812.7 632.1 815.8C629.3 821.6 626.4 827.3 622.8 832.6C618.3 839.3 614.5 846.3 610.8 853.5C610.4 854.3 609.9 855.2 609.5 856C609.3 856.4 609.3 856.4 608.3 858.3C607 860 607 860 605.1 860.8C602.6 861 601.1 860.6 598.8 859.6C597.9 859.3 597.1 859 596.3 858.6C595.3 858.3 594.4 857.9 593.5 857.6C558.9 844.5 521.4 834.8 484.3 833.4C483.2 833.4 482.1 833.4 481 833.3C478.3 833.2 475.7 833.1 473 833C473.6 829.9 474.5 828 476.6 825.6C476.9 825.2 476.9 825.2 478.2 823.6C478.5 823.3 478.5 823.3 479.9 821.6C481.1 820.1 482.3 818.7 483.5 817.2C484.1 816.5 484.7 815.8 485.3 815.1C487.6 812.2 489.8 809.3 492.1 806.4C495.6 801.7 499.3 797.1 503 792.5C507.2 787.3 511.3 782.1 515.3 776.8C518.7 772.4 522.1 768 525.6 763.6C528.8 759.5 532 755.5 535.1 751.4C536.3 749.9 537.5 748.4 538.7 746.9C541.7 743.1 544.3 739.6 546.5 735.3C549.3 730.5 551.9 726.6 557 724C567.1 721.7 577.6 722.5 587.8 722.8C593.2 723 598.6 723 604 723C604.5 723 604.5 723 606.8 723C608.5 723 610.3 723 612.1 722.9C616.3 722.9 620.5 722.9 624.7 723C625.5 723 626.2 723 627 723C628.6 723 630.3 723 632 723C628.8 706.6 625.2 690.2 621.6 673.9C621 670.9 620.3 667.9 619.6 665C615.2 645.1 610.8 625.2 606.4 605.3C605.5 601.3 604.6 597.3 603.7 593.3C603.6 592.7 603.6 592.7 602.9 589.5C602.3 587 601.8 584.6 601.2 582.1C600.1 576.8 598.9 571.5 597.7 566.2C596.8 562.3 596 558.3 595.1 554.3C594.6 552.4 594.2 550.5 593.8 548.5C593.5 547.4 593.3 546.3 593 545.2C592.8 544.3 592.6 543.3 592.4 542.4C592 540 592 540 592 536Z"/>
<path fill="#FFFFFF" d="M567 868C567.3 869 567.7 870 568 871C565.7 874.5 563.7 876.2 560 878C559.7 879 559.3 880 559 881C562 884 564.9 886.9 568 890C564.7 891.1 564.2 890.8 561 890C558.9 889.9 556.8 889.9 554.8 889.9C553.7 889.9 552.6 890 551.5 890C551.1 890 551.1 890 549 890C551.6 892.8 554.5 894.7 557.7 896.7C558.7 897.3 559.7 897.9 560.7 898.6C561.5 899 562.2 899.5 563 900C559.7 901.1 557.4 901.1 553.9 901C548.2 900.9 548.2 900.9 546 902C547.6 903.6 549.3 905.3 551 907C546.7 906.7 542.4 906.3 538 906C545.5 913.3 555 917.9 565 921C564.2 921.5 563.3 921.9 562.4 922.4C560 925 560 925 559.9 927.3C560.2 929.5 560.5 931.8 561 934C559.7 933.8 559.7 933.8 553 933C556.6 937 560.3 940.9 564 945C563.3 945.3 562.7 945.7 562 946C559.7 945.1 559.7 945.1 556.8 943.7C555.7 943.2 554.7 942.7 553.6 942.1C552.5 941.6 551.3 941 550.2 940.4C547.9 939.3 545.6 938.2 543.3 937.1C542.2 936.6 541.1 936 540 935.5C526.2 928.7 516.4 925.6 501 926C501.3 926.1 501.3 926.1 503 926.8C560.2 949.1 560.2 949.1 580 974C579.7 974.7 579.3 975.3 579 976C578.8 975.8 578.8 975.8 577.7 974.7C547.1 943.3 501.3 927.8 458 927C457.1 927 456.2 927 455.2 926.9C416.2 926.2 378.5 931.8 340.1 938.1C333.9 939.1 327.8 940.1 321.7 941.1C319.9 941.4 318.1 941.6 316.3 941.9C293.8 945.6 271.4 949.1 248.8 951.8C247.7 951.9 246.7 952 245.7 952.1C239.8 952.8 233.9 953.4 228 954C226.9 954.1 225.7 954.2 224.5 954.4C215.7 955.1 206.8 955.2 198 955.2C195.4 955.2 192.8 955.2 190.3 955.2C177.2 955.3 163.8 954.8 151 952C153.1 949.8 155.1 948.2 157.7 946.8C172.6 938.1 185.4 927.7 198 916C199 915.1 199.9 914.3 200.9 913.4C206.7 908.1 212.2 902.8 217.7 897.3C220.3 894.7 223.1 892.2 225.9 889.8C228.4 887.6 230.9 885.4 233.3 883.1C238 878.8 242.8 874.8 247.8 870.8C250 869 250 869 252 867C254.3 866.8 254.3 866.8 257.1 866.8C258.2 866.8 259.3 866.9 260.4 866.9C261 866.9 261 866.9 263.9 866.9C266.5 867 269 867 271.5 867C272.8 867 274.1 867.1 275.5 867.1C296 867.3 316.2 867.3 336.6 864.1C349 862.2 361.4 860.8 373.8 859.2C375.9 858.9 378.1 858.7 380.2 858.4C400.8 855.8 421.3 853.4 442 852C442.9 851.9 443.9 851.9 444.8 851.8C485.1 849 530.2 849.1 567 868ZM818 806C822.3 808.3 826.1 810.8 830 813.7C848.2 827.1 868.8 837.2 890 845C890.7 845.3 891.4 845.5 892.2 845.8C909.2 852.2 927.2 855.5 945 859C923.6 882.6 887.9 889.1 857.9 893C857.2 893.1 856.6 893.2 855.9 893.3C838.7 895.5 821.4 896.5 804 897.6C753.9 900.8 709.6 913 663 931.1C661.6 931.6 660.2 932.1 658.9 932.6C635.9 941.5 616.3 955.5 602.4 976.1C602.2 976.4 602.2 976.4 601 978C600.7 978 600.3 978 600 978C599.9 977.2 599.9 976.4 599.8 975.6C599.6 971.9 599.3 968.2 599.1 964.6C599 963.3 598.9 962 598.8 960.7C598.1 950.2 598.1 950.2 597.5 945.6C596.7 939.3 596.7 932.9 596.7 926.5C596.7 925 596.7 923.5 596.6 922C596.3 906.9 598.9 892.3 609.2 880.5C617.7 872.2 628.3 868.5 639.3 864.4C642.1 863.4 644.8 862.3 647.5 861.1C673.7 850.2 701.3 844.9 729 839.4C761 833 790.9 824.9 818 806Z"/>
<path fill="#000000" d="M1043.9 287.6C1044.2 287.8 1044.2 287.8 1045.7 289C1047.5 290.3 1049.2 291.6 1051 293C1051.4 293.3 1051.4 293.3 1053.7 295.1C1066.5 305.8 1075.4 320.8 1083.9 335.1C1084.9 336.9 1086.1 338.6 1087.2 340.3C1090.2 344.8 1090.2 348.8 1090.3 354.1C1090.3 354.5 1090.3 354.5 1090.3 356.5C1090.6 382.7 1090.4 408.9 1071.1 429C1064.1 436.1 1057.2 440.2 1048 444C1046.9 444.5 1045.7 445 1044.5 445.5C1029.2 452.2 1009.6 456.9 993.3 451C983 446.4 976.3 439.8 969.1 431.3C967.5 429.6 966 427.9 964.3 426.3C958.1 419.9 952.9 413.2 948 405.8C947.5 404.9 946.9 404.1 946.4 403.2C941.9 396.2 938.2 389.1 936.3 380.9C936.2 380.4 936.2 380.4 935.6 378C932.8 364.2 932.1 348.4 937 335C937.3 334.3 937.5 333.6 937.8 332.9C941.3 323.1 945.4 313.8 950.2 304.6C950.6 303.8 951 303 951.4 302.2C956.7 292.2 965.4 285.8 976 281.9C997.3 275.7 1025.3 273.8 1043.9 287.6ZM358 140C364.2 145.8 368.8 152.7 373 160C373.4 160.6 373.7 161.2 374.1 161.9C382.6 176.4 388.9 191.6 384.8 208.6C381.4 219.8 374 228.7 367 238C366.3 238.9 365.6 239.8 364.9 240.7C346.7 264.1 325 281 295 286C274.7 288.1 256.1 285.2 239.3 273.1C225.6 261.8 213.9 241.2 211.7 223.5C211.5 220.9 211.5 218.4 211.5 215.9C211.5 215 211.5 214.1 211.5 213.1C211.7 205.2 213.3 198.3 216.2 191C217 188.9 217.8 186.8 218.5 184.7C221.6 176.4 224.6 171.5 232.3 166.7C235 165 236.8 163.3 238.9 161C249.5 150.1 262.9 146.3 277 142C278.6 141.5 280.2 141 281.8 140.5C287.2 138.9 292.5 137.3 297.9 135.6C298.8 135.4 299.7 135.1 300.6 134.8C303.2 134 305.8 133.2 308.4 132.5C309.2 132.2 310 132 310.8 131.8C327.3 126.9 344.1 129.5 358 140ZM1047.6 692.9C1049.1 694.6 1050.6 696.3 1052 698C1053.7 699.5 1055.4 701 1057.1 702.4C1058.7 704 1060.4 705.5 1062 707C1062.9 707.8 1063.8 708.6 1064.7 709.5C1075.1 719.3 1076.4 726.6 1076.8 740.4C1076.9 744.1 1077.4 747.6 1078.1 751.2C1079 755.6 1079.1 758.7 1078 763C1077.3 764 1076.7 765 1076 766C1075.6 767.9 1075.6 767.9 1075.3 770C1075.2 770.8 1075.1 771.6 1075 772.4C1074.9 773.2 1074.8 774 1074.7 774.9C1071.9 794 1063.4 808.2 1048 820C1031.8 831.5 1017 839.4 996.6 836.7C980.4 833.9 965.3 828.9 955.1 815.2C942.9 796.3 943.6 772.2 948 751C951.6 735.6 959.4 720.6 970 709C970.5 708.4 971 707.8 971.6 707.1C985.9 691.1 1029.9 678.2 1047.6 692.9ZM730.8 74C731.5 74.6 732.2 75.3 733 76C733.8 76.7 734.6 77.4 735.4 78.2C740.6 83.1 745.1 88.4 749.5 94.1C749.8 94.4 749.8 94.4 751.1 96C760.2 108.1 757.6 124.5 755.7 138.7C753.9 150.1 750.9 155.7 742 163C741.2 163.8 740.4 164.7 739.6 165.6C733.1 172.4 726.1 174.4 717 176C716.1 176.2 715.3 176.3 714.4 176.5C706.5 178 698.8 178.4 690.7 178.4C689.5 178.4 688.2 178.4 686.9 178.4C677.3 178.2 669.1 177.2 660 174C659 173.7 658.1 173.4 657.1 173.1C639.6 167.4 623.5 156.6 615 140C607.6 124.5 607 114 611.6 97.5C612.2 95.2 612.8 93 613.4 90.8C613.8 89.3 614.1 87.9 614.5 86.5C614.7 85.8 614.9 85.1 615.1 84.5C616.9 78.1 620.5 73.8 625.9 69.9C626.6 69.4 627.3 68.9 628 68.4C628.7 67.9 629.4 67.4 630.2 66.9C630.9 66.3 631.7 65.8 632.5 65.3C661.7 45.5 704.9 52 730.8 74ZM889 140C892.3 142.6 895.3 145.5 898.3 148.4C901 151 903.7 153.2 906.6 155.5C920.9 167.1 929.9 181.1 931.9 199.6C932.9 218.7 926.5 233.9 914 248C904.5 258.2 892.6 261.7 879 263C852 263.5 828.9 249.2 809.8 231.2C799 220 792.1 205.1 791.8 189.6C792 172.3 793.3 154 805.7 140.8C830.5 117.5 863.2 121.9 889 140ZM542 68.1C556.2 77.3 564.4 89.5 568.3 105.9C570.6 119.4 570.8 139.3 562.6 150.9C562.1 151.6 561.6 152.3 561 153C560.6 153.6 560.1 154.3 559.7 154.9C548.2 170.4 521.2 175.8 503.3 178.4C491.5 179.9 479.7 179.6 469 174C468.1 173.6 467.1 173.2 466.1 172.8C458 169.1 452.3 164.1 446 158C444.6 156.8 443.2 155.7 441.8 154.5C433.8 147.5 426.8 136.5 425 126C424.7 119.8 425.5 114.7 427.2 108.7C427.4 107.9 427.6 107.1 427.9 106.2C433.3 87.1 443 74.1 460 63.6C485.2 50.1 517.8 54.3 542 68.1ZM1087.4 515.8C1100.9 527.4 1107.6 548.1 1109.2 565.5C1109.8 586.2 1104.9 605.7 1092 622C1091.7 622.4 1091.7 622.4 1090.2 624.5C1085.9 629.4 1080.3 632.9 1074.9 636.7C1073.2 637.8 1071.5 639.1 1069.9 640.3C1061 646.2 1053.2 646 1042.9 644.6C1028.9 641.8 1013.4 632.9 1005.3 621.1C993 600 988.6 576.3 994 552.4C996.7 543 1002.1 535.6 1008 528C1008.6 527.3 1009.1 526.5 1009.7 525.8C1021.4 511.5 1037 508 1054.5 506.2C1067.3 505.2 1077.3 508 1087.4 515.8Z"/>
<path fill="#FFFFFF" d="M914.4 908.2C926.8 909.8 939 908.1 951.3 906.7C956.6 906.1 961.7 905.9 967 906C967.2 906.8 967.4 907.5 967.7 908.3C972.4 923.7 981.1 932.9 994.7 941.3C995.4 941.9 996.2 942.4 997 943C997 943.7 997 944.3 997 945C948.7 948.2 900.9 942.6 853 937.6C838 936.1 823 934.5 808 933.2C806.1 933 804.2 932.8 802.3 932.6C783.4 930.9 764.5 930.8 745.5 930.7C744.9 930.7 744.9 930.7 741.7 930.7C727.3 930.7 713.1 931.1 698.8 932.6C694.5 933 690.3 933.1 686 933C691.1 929.6 697.3 928.5 703.2 926.8C703.9 926.6 704.6 926.4 705.3 926.2C742.8 915.8 781.2 909.2 820 906C820.8 905.9 821.7 905.9 822.5 905.8C852.8 903.3 884.4 904.1 914.4 908.2ZM1034.9 309.2C1039.3 310.3 1042.1 312.6 1045 316C1052.9 329.9 1061.5 352.4 1057.4 368.4C1054.8 375.2 1050.2 379.8 1043.8 383.1C1037.3 385.6 1031.5 385.2 1025 383C1025 384.3 1024.9 385.5 1024.9 386.8C1024.6 397.3 1024.2 406.1 1017.9 414.9C1011.7 419.4 1003.7 422 996 422C985.9 419.6 979.1 409 973.9 400.9C969.7 393.8 966.3 386.4 962.9 378.9C961.7 376.4 960.5 373.9 959.2 371.5C955.2 363.5 952.7 356.1 954 347C955.6 344.3 955.6 344.3 958 343C961.4 342.5 963.4 342.7 966.6 344.2C969 346 969 346 971.5 348.8C971.9 349.1 971.9 349.1 974 351C978 350.7 980.5 349.2 983.7 346.9C987.8 344 987.8 344 990 344C990.2 343.4 990.3 342.7 990.5 342.1C992.4 335.4 992.4 335.4 995.2 333.5C998 333 998 333 1001.7 332.8C1012.2 331.5 1022.2 321.9 1028.6 314C1029 313.5 1029.4 312.9 1029.8 312.4C1032 310 1032 310 1034.9 309.2ZM889 140C892.3 142.6 895.3 145.5 898.3 148.4C901 151 903.7 153.2 906.6 155.5C920.9 167.1 929.9 181.1 931.9 199.6C932.9 218.7 926.5 233.9 914 248C904.5 258.2 892.6 261.7 879 263C852 263.5 828.9 249.2 809.8 231.2C799 220 792.1 205.1 791.8 189.6C792 172.3 793.3 154 805.7 140.8C830.5 117.5 863.2 121.9 889 140ZM815.2 159.2C808.7 168.1 803.6 178.9 805 190C808.7 204.7 815 218.3 826 229C826.7 229.6 827.3 230.3 828 231C836.5 238.8 844.6 243.4 856.3 243.3C874.7 241.9 897.1 232 909.7 218.3C916.4 210.1 917.7 202.3 917 192C914.9 177.7 907.3 165.9 896 157C866.7 135.7 841.2 128.2 815.2 159.2Z"/>
<path fill="#E52321" d="M754 424C755.9 426 755.9 426 757.9 428.6C758.7 429.6 759.5 430.6 760.3 431.6C760.7 432.1 761.1 432.7 761.6 433.2C763.2 435.2 764.8 437.2 766.4 439.1C767 439.8 767.6 440.5 768.2 441.2C769.4 442.6 770.6 444 771.7 445.4C772.3 446.1 772.8 446.7 773.4 447.4C773.9 448 774.3 448.5 774.8 449.1C776.3 451.5 776.8 453.2 777 456C775.9 458.3 775.9 458.3 774.2 460.7C773.6 461.6 773 462.5 772.4 463.4C771.7 464.3 771 465.3 770.3 466.2C769.6 467.2 768.9 468.2 768.2 469.2C766.2 472.2 764.1 475.1 762 478C760.9 479.6 759.8 481.1 758.7 482.7C757.2 484.8 755.7 486.9 754.2 489C750.5 494.2 747 499.4 743.6 504.7C742.4 506.5 741.2 508.3 740 510C739.5 510.7 739.1 511.4 738.6 512.2C733.8 518.9 728.2 522.4 721 526.3C719.9 526.9 718.9 527.5 717.8 528.1C715.8 529.3 713.7 530.4 711.7 531.5C709.4 532.8 707.3 534.1 705.1 535.5C702 537 702 537 699.6 536.3C697.1 535 694.8 533.7 692.5 532.1C691.7 531.5 690.9 531 690.1 530.4C689.6 530.1 689.6 530.1 687.5 528.6C686.7 528 685.8 527.5 684.9 526.9C680.8 524 676.8 521.2 673 518C674 512.5 677.4 508.3 680.4 503.8C681 502.8 681.6 501.9 682.3 500.9C682.8 500 683.4 499.1 684 498.2C684.5 497.4 685.1 496.6 685.6 495.8C685.8 495.5 685.8 495.5 687 494C687.7 494 688.3 494 689 494C689.3 493.3 689.5 492.6 689.8 491.8C691.1 488.8 692.6 486.4 694.4 483.7C695.1 482.6 695.9 481.6 696.6 480.5C697.4 479.3 698.2 478.2 699 477C699.4 476.4 699.9 475.7 700.3 475.1C705.7 467.2 711.1 459.3 716.7 451.5C718.5 448.9 720 446.2 721.6 443.5C728.4 431.7 735.1 426.5 748 422.2C750.6 421.9 751.8 422.6 754 424Z"/>
<path fill="#FFFFFF" d="M542 68.1C556.2 77.3 564.4 89.5 568.3 105.9C570.6 119.4 570.8 139.3 562.6 150.9C562.1 151.6 561.6 152.3 561 153C560.6 153.6 560.1 154.3 559.7 154.9C548.2 170.4 521.2 175.8 503.3 178.4C491.5 179.9 479.7 179.6 469 174C468.1 173.6 467.1 173.2 466.1 172.8C458 169.1 452.3 164.1 446 158C444.6 156.8 443.2 155.7 441.8 154.5C433.8 147.5 426.8 136.5 425 126C424.7 119.8 425.5 114.7 427.2 108.7C427.4 107.9 427.6 107.1 427.9 106.2C433.3 87.1 443 74.1 460 63.6C485.2 50.1 517.8 54.3 542 68.1ZM455.3 85.8C446.5 98.2 439.7 115.6 442 131C443.7 136.5 446.7 140.2 451 144C451.5 144.5 451.9 144.9 452.4 145.4C463.2 155.7 477.8 159.1 492 162C493 162.2 494 162.4 495 162.6C502.4 163.5 508.7 162.9 515.8 160.9C516.6 160.6 517.4 160.4 518.2 160.2C532.1 156 544 149 551.8 136.3C557.7 124.8 556.4 113.9 552.7 102C548.6 90.1 539.6 78.2 528.5 72.2C501.4 59.3 476.2 64.4 455.3 85.8ZM1087.4 515.8C1100.9 527.4 1107.6 548.1 1109.2 565.5C1109.8 586.2 1104.9 605.7 1092 622C1091.7 622.4 1091.7 622.4 1090.2 624.5C1085.9 629.4 1080.3 632.9 1074.9 636.7C1073.2 637.8 1071.5 639.1 1069.9 640.3C1061 646.2 1053.2 646 1042.9 644.6C1028.9 641.8 1013.4 632.9 1005.3 621.1C993 600 988.6 576.3 994 552.4C996.7 543 1002.1 535.6 1008 528C1008.6 527.3 1009.1 526.5 1009.7 525.8C1021.4 511.5 1037 508 1054.5 506.2C1067.3 505.2 1077.3 508 1087.4 515.8ZM1013 538C1007.6 546.8 1005.1 556 1003 566C1002.8 566.8 1002.6 567.6 1002.4 568.5C1000.3 581.3 1002.1 592.4 1009.2 603.3C1018 614.9 1033.6 626 1048 629C1059.2 630.4 1067.9 627.1 1076.9 620.7C1085.6 613.7 1092.1 603.6 1093.8 592.5C1095.2 577.4 1094.4 555.5 1085.5 542.8C1076.6 532 1060.2 524.6 1046.4 522.6C1035.2 522.1 1019.8 529.1 1013 538ZM1047.6 692.9C1049.1 694.6 1050.6 696.3 1052 698C1053.7 699.5 1055.4 701 1057.1 702.4C1058.7 704 1060.4 705.5 1062 707C1062.9 707.8 1063.8 708.6 1064.7 709.5C1075.1 719.3 1076.4 726.6 1076.8 740.4C1076.9 744.1 1077.4 747.6 1078.1 751.2C1079 755.6 1079.1 758.7 1078 763C1077.3 764 1076.7 765 1076 766C1075.6 767.9 1075.6 767.9 1075.3 770C1075.2 770.8 1075.1 771.6 1075 772.4C1074.9 773.2 1074.8 774 1074.7 774.9C1071.9 794 1063.4 808.2 1048 820C1031.8 831.5 1017 839.4 996.6 836.7C980.4 833.9 965.3 828.9 955.1 815.2C942.9 796.3 943.6 772.2 948 751C951.6 735.6 959.4 720.6 970 709C970.5 708.4 971 707.8 971.6 707.1C985.9 691.1 1029.9 678.2 1047.6 692.9ZM1009.9 704.4C1009 704.7 1008.1 705 1007.1 705.3C988.7 711 973.2 720.3 963.9 738C957.2 752.5 952.1 777.9 957.4 793.4C963.7 809.2 979.5 816.9 994.2 823.3C1003.6 827 1014.7 825.4 1024 822C1034.3 817.2 1042.6 810.6 1051 803C1051.7 802.4 1052.4 801.9 1053.2 801.3C1059.6 796 1061 787.7 1063 780C1063.2 779.4 1063.2 779.4 1063.9 776.5C1067.7 762.1 1070.1 744.6 1062.4 730.9C1054.9 719.4 1043.5 707.4 1030 703C1022.7 701.6 1016.9 702.3 1009.9 704.4ZM267.2 175.2C267.7 175.5 267.7 175.5 270.6 176.9C271.2 177.2 271.8 177.5 272.4 177.8C274.4 178.7 276.3 179.7 278.2 180.7C279.5 181.3 280.8 182 282.1 182.6C286.7 184.9 291.4 187.2 296 189.5C296.8 190 297.7 190.4 298.6 190.9C299.3 191.3 300.1 191.7 300.8 192.1C305.1 193.9 307.4 194.2 311.8 192.8C314.7 191.6 317.4 190.2 320.1 188.7C322.9 187.3 324 187 327.2 187C330.5 188.2 332 189.1 334 192C334.6 197.1 333.6 201.2 332 206C336.5 211.3 342.2 214.3 348.2 217.7C350.2 218.8 352.2 220 354.2 221.1C355 221.6 355.9 222.1 356.8 222.7C359 224 359 224 361 226C361.6 229.1 361.5 231.1 359.8 233.9C356 238.6 352.9 240.7 346.8 241.4C342.1 240.9 339.7 238.9 336.3 235.9C335.1 234.9 333.9 233.9 332.6 232.9C332 232.4 331.4 231.9 330.8 231.4C318.2 221.5 318.2 221.5 311 222.2C306.1 224.2 302.6 228.3 299 232C298.3 232.6 297.7 233.3 297 233.9C293.9 237.2 293.9 237.2 293 239C293.3 243.8 295 247.6 297.1 251.9C299.4 257.2 301.1 261.2 300 267C297.9 270.7 295.1 273.8 291 275C286.6 275.4 284.1 275.5 280.2 273.7C277.4 270.2 276.6 267 275.7 262.8C275 260 274.3 257.5 273 255C270.2 253.9 270.2 253.9 267 253C262.2 250.5 262.2 250.5 261 248C260.5 242.8 261.4 240.3 264.1 235.8C265.9 232.1 265.8 228.9 265 225C261.7 215.8 257.1 207 252.7 198.3C247.3 187.8 247.3 187.8 248 182C252.4 174.7 259.3 172.2 267.2 175.2Z"/>
<path fill="#E52321" d="M677 352C682.1 353.5 686.5 355.7 691.2 358.2C692.9 359.1 694.5 360 696.2 360.9C696.6 361.2 696.6 361.2 699 362.4C704.8 365.5 710.8 368.6 716.7 371.6C717.9 372.3 719.1 372.9 720.4 373.5C723.2 375 726.1 376.5 729 378C726.8 389.5 721.5 397.6 714.4 406.8C711.8 410.2 709.4 413.8 707.1 417.4C703.5 422.8 699.7 428.2 695.9 433.5C691.8 439.2 688 445 684.2 450.9C679.3 458.3 673.5 463.3 666.4 468.4C664.7 469.7 663 470.9 661.3 472.1C660.9 472.4 660.9 472.4 658.7 474C654.2 477.3 649.8 480.6 645.3 483.9C643.7 485.1 642.1 486.2 640.5 487.4C639.8 487.9 639.1 488.4 638.4 488.9C638 489.3 637.5 489.6 637 490C631.7 487.5 627 484 622.1 480.7C621.1 480 620.2 479.4 619.2 478.7C614.2 475.3 609.5 471.9 605 468C606 466.4 607 464.7 608.1 463.1C608.6 462.2 609.2 461.3 609.8 460.4C610.1 459.9 610.5 459.4 610.9 458.9C612 457 612 457 613.1 454.4C614.7 451.1 616 449.3 619 447C625.9 445.1 633.4 445.7 640.4 445.9C642.4 445.9 644.4 445.9 646.4 445.9C651.3 445.9 656.1 445.9 661 446C661.3 445.4 661.5 444.8 661.8 444.3C663 442 664.3 440 665.9 438C666.4 437.2 667 436.4 667.6 435.7C668.2 434.8 668.8 434 669.4 433.2C670.7 431.5 672 429.8 673.2 428.1C673.9 427.2 674.5 426.4 675.1 425.5C677.9 421.8 680.6 418.1 683.3 414.4C683.8 413.8 684.2 413.2 684.7 412.5C691.5 403.3 688 392.4 686.4 381.6C686.3 380.7 686.1 379.9 686 379C685.7 378.9 685.7 378.9 684 378.2C680.4 376.8 677.1 375.1 673.7 373.4C673 373.1 672.4 372.7 671.7 372.4C670.2 371.6 668.6 370.8 667 370C668.5 365.7 670.7 362 673.1 358.2C673.5 357.6 673.9 357 674.3 356.4C675.2 354.9 676.1 353.5 677 352Z"/>
<path fill="#FFFFFF" d="M730.8 74C731.5 74.6 732.2 75.3 733 76C733.8 76.7 734.6 77.4 735.4 78.2C740.6 83.1 745.1 88.4 749.5 94.1C749.8 94.4 749.8 94.4 751.1 96C760.2 108.1 757.6 124.5 755.7 138.7C753.9 150.1 750.9 155.7 742 163C741.2 163.8 740.4 164.7 739.6 165.6C733.1 172.4 726.1 174.4 717 176C716.1 176.2 715.3 176.3 714.4 176.5C706.5 178 698.8 178.4 690.7 178.4C689.5 178.4 688.2 178.4 686.9 178.4C677.3 178.2 669.1 177.2 660 174C659 173.7 658.1 173.4 657.1 173.1C639.6 167.4 623.5 156.6 615 140C607.6 124.5 607 114 611.6 97.5C612.2 95.2 612.8 93 613.4 90.8C613.8 89.3 614.1 87.9 614.5 86.5C614.7 85.8 614.9 85.1 615.1 84.5C616.9 78.1 620.5 73.8 625.9 69.9C626.6 69.4 627.3 68.9 628 68.4C628.7 67.9 629.4 67.4 630.2 66.9C630.9 66.3 631.7 65.8 632.5 65.3C661.7 45.5 704.9 52 730.8 74ZM657.1 65.6C656.7 65.7 656.7 65.7 654.7 66.4C642.8 70.7 634.1 77.8 628 89C622.3 101.8 618.1 115.2 623 129C631 147.1 644 157.8 662.1 165C668.9 167.3 675.3 168.4 682.4 168.7C683.3 168.7 684.2 168.8 685.1 168.8C701.6 169.4 716.7 169.5 729.8 158.5C738.9 149.5 745.2 132.9 745.4 120.2C745.2 110.3 741.6 102.3 735 95C732.4 92.8 729.7 91.1 726.9 89.3C725.3 88.3 723.7 87.3 722.1 86.2C721.3 85.7 720.4 85.2 719.6 84.6C716.9 83 714.3 81.2 711.8 79.5C710 78.3 708.3 77.2 706.6 76C705.8 75.5 705 74.9 704.2 74.4C696.5 69.3 688.4 66 679.2 64.8C678.7 64.7 678.7 64.7 676.1 64.4C675.6 64.3 675.6 64.3 673 64C671.9 63.8 670.8 63.5 669.7 63.3C665 62.9 661.5 64 657.1 65.6Z"/>
<path fill="#E52321" d="M790 487C793.6 488.5 796 490.7 798.8 493.5C799.2 494 799.2 494 801.5 496.2C801.8 496.5 801.8 496.5 802.9 497.7C804.4 499.1 805.8 500.5 807.2 501.9C812.3 507 816.9 512.1 821 518C820.6 518.6 820.1 519.2 819.7 519.8C815.5 525.7 811.7 531.6 807.9 537.8C803.2 545.5 798.3 553.2 793.4 560.9C792.9 561.9 792.3 562.8 791.7 563.7C790.6 565.4 789.5 567.1 788.4 568.8C787 571 787 571 785.4 574.6C781.9 578.1 778.8 578 774 578.1C772.8 578.1 771.6 578.1 770.4 578.1C769.8 578.1 769.8 578.1 766.7 578.1C754.6 577.7 746.9 572.8 738 565C738.6 561.6 739.9 559.4 741.8 556.6C742.1 556.2 742.1 556.2 743.6 554C743.9 553.5 743.9 553.5 745.6 551.2C746.2 550.2 746.9 549.2 747.6 548.2C749.7 545.2 751.9 542.1 754 539C754.7 538 755.3 537.1 756 536.1C758.6 532.4 761.2 528.6 763.8 524.9C769.8 516.3 775.7 507.7 781.5 499.1C782.2 498.1 782.9 497.1 783.6 496.1C784.1 495.2 784.7 494.3 785.4 493.4C786.9 491.2 788.4 489.1 790 487Z"/>
<path fill="#FFFFFF" d="M995.2 725.3C998 726 998 726 999.7 727.7C1001.3 730.5 1001.3 732.1 1001.2 735.3C1001.2 736.1 1001.1 737 1001.1 738C1001.1 738.6 1001 739.3 1001 740C1011.9 742.2 1011.9 742.2 1016.9 741.4C1020 741 1020 741 1022.2 742.8C1022.7 743.1 1022.7 743.1 1025 745C1032.2 747.9 1039.5 748.4 1047.1 748.7C1050 749 1050 749 1052 751C1053.4 758.1 1050.8 763.5 1047.4 769.6C1047.2 770 1047.2 770 1046.2 772C1041.8 780.1 1036.4 787.9 1027.3 790.9C1022.4 791.1 1018.3 790.2 1014 788C1011.6 785.6 1009.7 783 1008 780C1007.8 780.2 1007.8 780.2 1006.7 781.2C1001.1 786.2 995.1 790.9 987.2 790.5C982.2 789.3 976.6 786.4 973.7 782.1C969.5 770.1 976.4 755.6 980.8 744.6C981.2 743.6 981.6 742.6 982.1 741.5C988.2 726.8 988.2 726.8 995.2 725.3ZM680 80C683.4 82.1 684.8 83.5 686.2 87.2C686.5 88.5 686.8 89.7 687.1 91C687.3 91.7 687.4 92.4 687.6 93.1C688.1 95.2 688.6 97.4 689.1 99.5C689.5 101.6 690 103.8 690.5 105.9C691 107.9 691.5 109.8 691.9 111.8C693.1 115.2 694.1 116.7 697 119C699.3 120 701.7 121 704 122C705.9 123.4 705.9 123.4 707 125C707.5 128.7 707.2 129.8 705 133C701.9 134.2 701.9 134.2 699 135C698.7 142.2 699.5 148.8 701 155.9C701 159 701 159 699.3 161.4C697 163 697 163 693.1 163.1C689.4 162.4 687.1 161 684.8 157.8C683.6 155.1 683.8 152.7 684 149.6C684.1 143.5 683 136.9 681 131C676.6 130.2 672.6 129.9 668.1 129.9C667 129.9 665.8 130 664.6 130C663.8 130 662.9 130 662 130C661.5 130.9 661.1 131.8 660.6 132.7C660 133.9 659.4 135.1 658.8 136.3C658.1 137.5 657.5 138.7 656.9 139.9C655.1 142.8 654 144.4 651 146C646.6 146 644.5 145.4 641 142.8C639 140 639 140 638.9 137.1C640 134 640 134 642.1 131.4C644.6 127 644.2 123.7 643.8 118.7C644 116 644 116 645.2 114.2C647.7 112.5 650 112.3 653 111.8C658.2 109.7 660.3 103.7 662.4 98.8C663 97.5 663.6 96.2 664.3 94.8C664.4 94.5 664.4 94.5 665.1 92.9C666.3 90.3 667.6 87.7 668.8 85.1C669.2 84.3 669.6 83.6 670 82.8C672.2 78.9 676 79.7 680 80ZM849 947C851 947.1 853.1 947.2 855.1 947.4C855.8 947.4 856.5 947.5 857.2 947.5C861.9 947.8 866.7 948.1 871.4 948.5C888.5 949.7 905.6 950.4 922.7 950.9C929.7 951.1 936.7 951.3 943.6 951.5C944 951.5 944 951.5 945.7 951.6C956.9 951.9 968 952.3 979.2 953C980.5 953.1 981.8 953.1 983.1 953.2C984.2 953.3 985.4 953.4 986.5 953.4C987.5 953.5 988.4 953.6 989.4 953.6C995.5 954.5 998.7 957.4 1002.8 961.7C1003.9 962.8 1004.9 963.9 1006 964.9C1006.5 965.5 1007 966 1007.5 966.5C1010 969 1012.7 971.3 1015.4 973.5C1017.2 975.2 1018.5 977 1020 979C983.1 979.7 949.8 976 914.5 964.3C904.2 960.9 893.8 958.3 883.4 955.7C882.5 955.5 881.7 955.3 880.8 955C870.2 952.4 859.7 950 849 948C849 947.7 849 947.3 849 947ZM347 948C340.3 950.3 333.4 952 326.4 953.6C325.7 953.8 325 954 324.3 954.2C267.1 967.9 209 980.1 150 979C151 971.7 155.8 965.4 161.5 960.8C165.7 958.6 167.5 958.6 172 960C172.7 960.5 173.3 961.1 174 961.6C177.1 963.7 179.4 962.6 183 962C185.3 961.5 187.5 961 189.8 960.4C199.6 958.3 209.4 958.8 219.5 959.1C231.4 959.3 242.5 958.8 254 955C256.6 954.7 259.2 954.5 261.9 954.4C263.5 954.2 265.1 954.1 266.7 954C267.1 954 267.1 954 269.3 953.8C292.6 952.1 292.6 952.1 302.9 950.4C311.9 949 321 948.3 330.2 947.8C330.9 947.7 331.6 947.7 332.4 947.6C334.4 947.5 336.5 947.4 338.5 947.2C339.7 947.2 340.9 947.1 342.2 947C345 947 345 947 347 948ZM857 163C867.7 167.6 875.1 172.1 880 183C881.6 188.4 881.9 193.2 879.4 198.3C876.5 201.6 874.2 202.7 870 204C868 204 866 204.1 864 204C864.4 205.1 864.9 206.2 865.3 207.4C865.9 208.9 866.4 210.4 867 211.9C867.3 212.7 867.6 213.4 867.9 214.2C869.9 219.7 870.3 224.2 870 230C866.3 230.4 864.5 230.3 861.3 228.2C858.5 224.3 857.8 220.9 856.8 216.3C853.7 203.7 853.7 203.7 850 200C847.7 199.6 847.7 199.6 845 200C843.1 202.2 843.1 202.2 841.4 204.9C838.5 209.8 838.5 209.8 836 210.9C832.8 211.1 831.4 210 829 208C827.8 205.4 827.8 205.4 828 202C829.3 199.8 830.7 197.8 832.2 195.8C835.7 190.3 837.7 184 840 178C840.7 176.1 841.5 174.3 842.2 172.4C843.3 169.8 844.3 167.2 845.1 164.4C847.1 158.9 852.5 161.6 857 163ZM516 81C518.4 82.7 519.8 84 520.4 86.9C520.5 89.4 520.6 91.8 520.6 94.2C520.7 100.9 521.2 107.4 522.4 114C522.5 114.3 522.5 114.3 522.8 116.1C523.2 118.1 523.6 120 524 122C524.5 124.3 524.9 126.5 525.3 128.8C525.5 129.7 525.7 130.6 525.9 131.6C526 134.4 525.5 135.7 524 138C521.4 140 520.1 140 516.8 139.8C512.3 138.9 509.4 137.2 505.7 134.6C504.3 133.7 502.9 132.8 501.5 131.9C500.8 131.4 500.1 131 499.3 130.5C495.3 127.9 491.2 125.4 487.1 122.9C486.3 122.5 485.6 122 484.8 121.5C479.3 118.1 479.3 118.1 477 117C477.9 122.2 479 127.2 480.6 132.2C481.8 136 482.7 139.1 482 143C480.5 144.9 480.5 144.9 478 146C475.2 146.2 472.6 146.1 470 145C466.1 140.5 465.8 134.3 465 128.6C464 121.9 462.9 116.1 460 110C459.5 106.8 459.5 106.8 460 104C462.1 101.6 462.1 101.6 465 100C472 100 476.9 103.5 482.7 107.1C484.6 108.3 486.6 109.5 488.6 110.7C489.5 111.3 490.4 111.8 491.4 112.4C494.6 114.4 497.9 116.3 501.1 118.2C502 118.8 502.9 119.3 503.8 119.8C505.9 120.9 507.7 121.5 510 122C509.9 121.4 509.8 120.9 509.7 120.3C509.3 117.7 509 115 508.6 112.4C508.4 111.5 508.3 110.6 508.2 109.7C507.8 107.2 507.4 104.6 507 102C506.8 100.7 506.6 99.5 506.4 98.2C505.8 93.7 505.3 89.4 506 85C508.9 81.5 511.5 80.1 516 81Z"/>
<path fill="#E52321" d="M602 314C606.5 314.6 610.2 316.4 614.1 318.5C614.8 318.9 615.5 319.2 616.2 319.6C617.7 320.3 619.1 321.1 620.6 321.8C622.8 323 624.9 324.1 627.1 325.2C636.9 330.3 646.5 335.6 656 341C652.7 347 649.4 353.1 646 359C642.5 358.4 639.6 357.5 636.5 356C635.6 355.6 634.8 355.2 633.9 354.8C633.5 354.5 633.5 354.5 631.2 353.4C630.3 353 629.3 352.5 628.4 352.1C625.6 350.7 622.8 349.4 620 348C619.2 347.6 618.5 347.2 617.7 346.9C608.7 342.4 599.8 337.8 591 333C591.6 330 592.6 327.9 594.3 325.3C594.5 325 594.5 325 595.6 323.3C596.1 322.6 596.6 322 597.1 321.2C597.5 320.6 598 319.9 598.5 319.1C599.7 317.4 600.8 315.7 602 314Z"/>
<path fill="#FFFFFF" d="M223 1003C199.8 1015.6 166.8 1018.4 141 1021C140 1021.1 139.1 1021.2 138.1 1021.3C130.5 1022 122.9 1022.1 115.2 1022.1C114.1 1022.1 112.9 1022.1 111.7 1022C108.8 1022 105.9 1022 103 1022C112.6 1011.9 125.5 1009.2 139 1008C142.5 1007.9 146 1008 149.5 1008.1C151.5 1008.1 153.6 1008.1 155.7 1008.2C156.2 1008.2 156.2 1008.2 158.9 1008.2C177.9 1008.4 195.9 1007.9 214.4 1003.5C217.3 1002.9 220.1 1002.9 223 1003Z"/>
<path fill="#000000" d="M999.1 361C1002.1 362.5 1002.8 364.8 1004.2 367.7C1004.7 368.8 1005.2 369.8 1005.7 370.9C1008.9 378.7 1009.5 388.6 1006.8 396.6C1004.1 401.7 1004.1 401.7 1001 403C995.6 402.9 992.9 401.6 989 398C986.8 394.9 986.8 394.9 984.8 391.6C984.5 391 984.5 391 982.8 388.2C980.7 384.5 979.1 381.5 978.9 377.2C981.5 369.8 988.3 365.4 994.9 361.7C997 361 997 361 999.1 361Z"/>
<path fill="#FFFFFF" d="M1068 563C1069.9 565.1 1069.9 565.1 1071 568C1070.7 571.1 1070.2 574.8 1068 577C1066 577.1 1063.9 577.2 1061.9 577.3C1060.7 577.3 1059.4 577.4 1058.1 577.4C1056.7 577.4 1055.4 577.5 1054.1 577.5C1038.5 577.9 1038.5 577.9 1031.1 578.8C1021.1 579.9 1021.1 579.9 1017.9 577.4C1016.6 574.1 1016.5 571.6 1017 568C1018.6 565.8 1018.6 565.8 1021 564C1023.7 563.7 1025.9 563.7 1028.6 563.8C1030.1 563.9 1031.6 563.9 1033.1 563.9C1033.9 563.9 1034.7 564 1035.5 564C1039.8 564 1044 563.8 1048.2 563.6C1049 563.5 1049.8 563.5 1050.6 563.4C1066.8 562.5 1066.8 562.5 1068 563ZM307 970C304.5 972.5 302.9 972.6 299.5 973.3C298.3 973.5 297.2 973.8 296 974C294.7 974.3 293.4 974.5 292.1 974.8C290.8 975.1 289.5 975.3 288.2 975.6C284.6 976.3 281 977 277.5 977.7C275.3 978.2 273 978.6 270.8 979.1C260.9 981.1 250.9 983 241 985C239.9 985.2 238.8 985.4 237.7 985.6C202.6 992.5 166.9 998.5 131 998C134.6 993.6 137.8 989.6 143 987C149.6 986.3 156.4 987.3 162.9 988C191.3 990.6 217.9 986.7 245.5 980.6C258.4 977.7 271.3 975.2 284.3 972.9C285.2 972.8 286 972.6 286.9 972.5C289.4 972.1 291.8 971.6 294.2 971.2C295 971.1 295.7 971 296.4 970.8C300 970.2 303.4 969.9 307 970Z"/>
<path fill="#000000" d="M470 982C470 982.3 470 982.7 470 983C469.4 983.1 469.4 983.1 466.3 983.4C429.8 987.1 393.9 992.6 357.9 999.2C341.4 1002.2 325 1005.1 308.6 1007.7C308.2 1007.8 308.2 1007.8 306.2 1008.1C304.1 1008.4 301.9 1008.7 299.8 1009.1C298.6 1009.3 297.4 1009.4 296.2 1009.6C293.1 1010 290.1 1010.1 287 1010C293.1 1006.6 300.4 1005.5 307.1 1003.9C307.9 1003.7 308.7 1003.5 309.6 1003.3C361.7 990.7 416.2 981.3 470 982ZM729 954C729 954.3 729 954.7 729 955C728.1 955.1 727.3 955.1 726.4 955.2C696.5 957.7 668 961.7 640.2 973.5C639.8 973.7 639.8 973.7 637.8 974.6C637.1 974.9 636.4 975.2 635.7 975.5C634 976 634 976 632 975C636.7 965.8 642.4 962.2 652 959C657.1 957.8 662.2 956.8 667.4 955.8C668.7 955.6 670.1 955.3 671.5 955C674 954.5 676.5 954.1 679 953.6C680.7 953.3 682.5 952.9 684.2 952.4C698 949.1 715.1 952.8 729 954ZM1037 339C1040.4 342 1040.9 344.4 1041.2 348.8C1041.4 353.7 1041.4 357.1 1039.3 361.6C1036.8 364.2 1035.5 365.3 1032 366C1027.5 365.9 1024.8 364.6 1021.5 361.5C1015 354.8 1015 354.8 1015 351C1016.6 347.8 1019.5 346.9 1022.6 345.4C1023.2 345.1 1023.8 344.9 1024.5 344.6C1028.6 342.6 1032.8 340.8 1037 339ZM994.1 751.7C999.1 751.8 1003.4 753.2 1008 755C1007.6 762.6 1002.9 768.5 997.5 773.5C994.4 775.9 992 777.1 988 777C985.6 776.1 985.6 776.1 984 774C982.5 767 985.1 760.3 988 754C990.4 751.6 990.9 751.7 994.1 751.7ZM663 980C662.6 980.1 662.6 980.1 660.7 980.9C654.6 983.3 649.5 985.7 644.5 989.9C643 991 643 991 641 991C640.7 991.6 640.5 992.1 640.2 992.7C638.9 995.2 637.3 997.6 635.8 1000C629.7 1009.5 625.3 1019.2 622 1030C620.7 1029.7 619.4 1029.3 618 1029C616.9 1025.1 617.1 1023 618.8 1019.2C620.2 1016 621.4 1012.8 622.4 1009.4C625.7 999.2 633.6 990.7 642.8 985.4C657.3 978.1 657.3 978.1 663 980ZM620 986C620 989.3 619.3 991.2 618.1 994.2C615.6 1001.5 614.7 1008.8 613.8 1016.4C613.5 1019.1 613.2 1021.7 612.8 1024.4C612.7 1025.5 612.6 1026.7 612.4 1027.9C612.1 1030.6 611.6 1033.3 611 1036C608 1035 608 1035 606.3 1032.1C602.3 1021.5 605.8 1008.2 610 998C612.4 993.8 615.6 990.3 619 987C619.3 986.7 619.7 986.3 620 986ZM856 175C860.9 175.2 863.5 176.6 867 180C869.3 183.2 869.4 186.1 869 190C867.9 191.9 867.9 191.9 866 193C860.8 193.6 855.4 192.9 851 190C849.9 187.5 849.9 186.3 850.7 183.7C851.1 182.9 851.4 182.2 851.8 181.4C852.2 180.6 852.5 179.8 852.9 179C854 177 854 177 856 175ZM655 994C655.7 994.3 656.3 994.7 657 995C656.6 995.6 656.2 996.1 655.8 996.7C649.1 1007 647.6 1017.9 647 1030C644.7 1030 642.4 1030 640 1030C637.3 1025.4 636 1022.3 637 1017C638.8 1014.4 640.8 1012 642.9 1009.6C645 1007 646.3 1004.6 647.7 1001.6C649.2 998.4 649.9 997.1 652.7 994.8C653.5 994.5 654.2 994.3 655 994ZM1019 759C1025.7 759.4 1031 762.1 1037 765C1035 770.6 1032.4 773.8 1027 776.5C1024 777 1024 777 1021.2 775.8C1019 774 1019 774 1018 772C1017.9 767.5 1017.9 763.4 1019 759ZM550 1003C554.5 1004.4 556.6 1006 559 1010C561.5 1017.5 561.2 1025.2 561 1033C554.2 1037 554.2 1037 552 1037C551 1032.1 550.8 1028.8 552.4 1024.1C554.2 1018.6 555.4 1013.3 553.1 1007.9C552 1005.9 552 1005.9 550 1003ZM277 200C280.3 201.3 283.7 202.6 287 204C287.6 204.2 287.6 204.2 290.6 205.4C293 207 293 207 294.2 209.2C293.9 213.6 291 216 288 219C285.7 218.9 285.7 218.9 283 218C281.6 215.7 280.6 213.7 279.7 211.2C279.4 210.6 279.2 209.9 278.9 209.3C277.5 205.9 277 203.7 277 200ZM646 882C646.7 882.3 647.3 882.7 648 883C647.8 883.2 647.8 883.2 646.7 884.4C646.1 885 645.6 885.7 645 886.3C644.4 886.9 643.9 887.5 643.3 888.2C642 890 642 890 642 893C643 893.2 643 893.2 648 894C646.7 895 645.4 896 644 897C647.3 897.3 650.6 897.7 654 898C651.5 903.1 651.5 903.1 648 905C644.8 904.6 643.2 903.6 641 901.3C640.5 900.7 639.9 900.2 639.4 899.6C638.8 899.1 638.3 898.5 637.8 897.9C637.2 897.4 636.6 896.8 636.1 896.2C634.7 894.8 633.4 893.4 632 892C634.8 889 637.6 886.8 641.1 884.7C642 884.2 642.9 883.6 643.8 883.1C644.5 882.7 645.2 882.4 646 882Z"/>
<path fill="#FFFFFF" d="M675 1009C675.7 1009 676.3 1009 677 1009C679.2 1012.2 679.2 1013.3 679 1017C677.7 1017 676.4 1017 675 1017C677.3 1022.3 679.7 1026.2 684 1030C682.8 1033.7 682.3 1034.8 679 1037C673.2 1032.7 673.2 1032.7 672 1029C671.3 1022.1 673.3 1015.6 675 1009Z"/>
<path fill="#000000" d="M536 1014C541 1016.5 542.1 1018.9 544 1024C544.6 1027.1 544.6 1027.1 544 1030C542.2 1032.6 540.2 1034.8 538 1037C537.3 1036.7 536.7 1036.3 536 1036C536 1028.7 536 1021.5 536 1014ZM799 867C802.3 867.3 805.6 867.7 809 868C808.7 868.2 808.7 868.2 807 869C807.4 869.4 807.4 869.4 809.4 871.2C811.6 873.5 812.8 875.1 814 878C812.3 880.1 812.3 880.1 810 882C807.6 882 807.6 882 805 881C803.2 878.1 803.2 878.1 801.7 874.5C801.2 873.3 800.7 872.1 800.1 870.9C799 868 799 868 799 867ZM576 1011C578 1012.5 578 1012.5 580 1015C580.2 1017.9 580.2 1020.3 579.9 1023.2C579.8 1023.9 579.8 1024.7 579.7 1025.4C579.6 1027.3 579.3 1029.1 579 1031C578.3 1031.3 577.7 1031.7 577 1032C574.4 1031.1 574.4 1031.1 572 1030C572.4 1023.2 573.6 1017.3 576 1011ZM676 104C678 105 678 105 679.2 108.2C680 111.8 680 113.6 679 117C673.4 118.1 673.4 118.1 670 117C670.5 111.8 673.2 108.2 676 104Z"/>
<path fill="#FFFFFF" d="M802 1016C802.3 1019 802.7 1021.9 803 1025C798.6 1024.7 796.5 1024.4 793.1 1021.6C791 1019 791 1019 791 1017C795.1 1015.4 797.7 1014.7 802 1016Z"/>
<path fill="#000000" d="M827 840C826.9 842.2 826.9 842.2 826 845C823.9 846.9 821.7 848.1 819 849C816.6 848.2 816.6 848.2 815 847C815.5 841.5 815.5 841.5 817.6 839.6C820.9 838.8 823.7 839.4 827 840Z"/>
<path fill="#FFFFFF" d="M930 1033C934.3 1033 938.6 1033 943 1033C941 1038 941 1038 938.1 1039.8C935 1041 935 1041 932 1041C930.2 1037.9 930 1036.8 930 1033Z"/>
<path fill="#000000" d="M480 869C482.6 869 485.3 869 488 869C488 872.6 488 876.3 488 880C484.9 878.7 482 877.5 479 876C479.3 873.7 479.7 871.4 480 869Z"/>
<path fill="#FFFFFF" d="M202 1044C204.3 1048.2 205 1052.3 206 1057C202.4 1057 198.7 1057 195 1057C196.4 1053.5 197.6 1050.8 199.6 1047.7C200.1 1047 200.5 1046.3 201 1045.6C201.1 1045.3 201.1 1045.3 202 1044Z"/>
<path fill="#000000" d="M689 870C689.8 872.7 689.8 872.7 690 876C687.9 878.9 687.9 878.9 685 881C682.2 881.3 682.2 881.3 680 881C680.2 876.8 680.4 874.6 683.4 871.6C686 870 686 870 689 870Z"/>
<path fill="#FFFFFF" d="M891 1026C894 1027.7 896.9 1029.3 900 1031C900 1033 900 1035 900 1037C897 1037 894.1 1037 891 1037C891 1033.4 891 1029.7 891 1026ZM774 1014C777.3 1014 780.6 1014 784 1014C784 1016.6 784 1019.3 784 1022C777.6 1022.4 777.6 1022.4 775.1 1020.8C774 1019 774 1019 774 1014ZM166.6 1052.9C167.7 1053 168.8 1053 170 1053C171 1055.3 172 1057.6 173 1060C171.4 1061.1 171.4 1061.1 169 1062C163.6 1060.6 163.6 1060.6 162 1059C161.9 1056.5 161.9 1056.5 162 1054C163 1053 163 1053 166.6 1052.9Z"/>
<path fill="#000000" d="M786 846C784.8 848.8 783.3 851.2 781.6 853.7C781.2 854.3 780.7 854.9 780.3 855.5C779 857 779 857 776 858C775.3 857.7 774.7 857.3 774 857C773.6 853.8 773.7 852.4 775.6 849.8C778.8 847.4 782 846 786 846Z"/>
<path fill="#FFFFFF" d="M592 1064C591.8 1066.3 591.8 1066.3 591 1069C588.7 1070.9 588.7 1070.9 586 1072C583.7 1071.2 583.7 1071.2 582 1070C581.8 1067.6 581.8 1067.6 582 1065C585.9 1062.4 587.6 1063.2 592 1064ZM734 1007C737.3 1007.6 739.6 1008.6 742 1011C742.2 1013.7 742.2 1013.7 742 1016C740.5 1015.9 739.1 1015.7 737.6 1015.6C737.2 1015.5 737.2 1015.5 735.2 1015.3C733 1015 733 1015 731 1014C732.9 1009.2 732.9 1009.2 734 1007ZM81 1064C82 1067.1 82 1068.9 81 1072C73.2 1072.1 73.2 1072.1 71 1071C71.2 1069.2 71.2 1069.2 72 1067C75.3 1064.5 76.7 1064 81 1064ZM22 1068C27.2 1068.6 32 1069.4 37 1071C35.9 1072.5 35.9 1072.5 34 1074C31.3 1074.3 31.3 1074.3 28.3 1074.2C27.3 1074.2 26.3 1074.1 25.3 1074.1C24.5 1074.1 23.8 1074 23 1074C21.9 1072.1 21.9 1072.1 21 1070C21.3 1069.3 21.7 1068.7 22 1068ZM341 1025C341 1027.6 341 1030.3 341 1033C339 1033.7 337 1034.3 335 1035C334.3 1031.7 333.7 1028.4 333 1025C336.3 1023.9 337.7 1024.2 341 1025ZM918 1028C918 1031 918 1033.9 918 1037C915.4 1037 912.7 1037 910 1037C910.5 1031.5 910.5 1031.5 912.9 1029.1C915 1028 915 1028 918 1028ZM241 1040C246.5 1040.5 246.5 1040.5 248.9 1042.9C249.3 1043.6 249.6 1044.3 250 1045C249.7 1046 249.3 1047 249 1048C246.4 1048 243.7 1048 241 1048C241 1045.4 241 1042.7 241 1040ZM287 1033C290.3 1033 293.6 1033 297 1033C296.7 1036.7 296.2 1037.8 293.4 1040.3C292.6 1040.9 291.8 1041.4 291 1042C290.3 1040.7 289.7 1039.4 289 1038.1C288.6 1037.3 288.3 1036.6 287.9 1035.8C287 1034 287 1034 287 1033ZM434 1011C433.9 1012.6 433.7 1014.3 433.6 1015.9C433.5 1016.9 433.4 1017.8 433.3 1018.7C433 1021 433 1021 432 1022C430.3 1022 428.7 1022 427 1022C427.5 1014.5 427.5 1014.5 429.9 1012C432 1011 432 1011 434 1011ZM134 1057C137.4 1056.8 137.4 1056.8 141 1057C143 1060 143 1060 143 1063C140 1064.5 137.3 1064.1 134 1064C134 1061.7 134 1059.4 134 1057ZM353 1022C354 1022 355 1022 356 1022C358 1026.1 358 1028.6 357 1033C355 1033 353 1033 351 1033C350 1031 350 1031 350.6 1028.8C350.8 1028 351.1 1027.2 351.4 1026.4C351.7 1025.6 352 1024.7 352.3 1023.9C352.5 1023.3 352.8 1022.6 353 1022Z"/>
<path fill="#000000" d="M322.8 897.7C323.5 897.8 324.3 897.9 325 898C324.3 900.6 323.7 903.3 323 906C319.4 906 315.7 906 312 906C313 905 314 904 315 903C315.4 902.6 315.4 902.6 317.4 900.3C320 898 320 898 322.8 897.7ZM769 881C765.1 885.2 761 888.1 756 891C755.6 885.5 755.6 885.5 757.3 883.2C761 880.6 764.6 880.9 769 881Z"/>
<path fill="#FFFFFF" d="M636 1060C638.3 1062.1 638.3 1062.1 640 1064C639.3 1065.3 638.7 1066.6 638 1068C634.2 1067.5 632.5 1065.9 630 1063C629.7 1062 629.3 1061 629 1060C631.8 1058.6 633.1 1059.1 636 1060Z"/>
<path fill="#000000" d="M470 982C470 982.3 470 982.7 470 983C464.7 983.5 464.7 983.5 438 986C438 985.3 438 984.7 438 984C437.3 983.7 436.7 983.3 436 983C447.4 982.3 458.6 981.9 470 982ZM253 910C253.9 910.2 254.9 910.3 255.9 910.5C260.6 911.2 265.3 911.1 270 911C270.3 911.7 270.7 912.3 271 913C265.4 914.6 260.8 915.2 255 915C254.3 913.4 253.7 911.7 253 910Z"/>
<path fill="#FFFFFF" d="M672 1039C673.2 1039.7 674.3 1040.5 675.4 1041.2C675.8 1041.5 675.8 1041.5 677.4 1042.5C679.3 1044.3 679.7 1045.4 680 1048C678.7 1050.2 678.7 1050.2 677 1052C676.3 1052 675.7 1052 675 1052C674.5 1050.4 674 1048.8 673.5 1047.2C673.4 1046.7 673.4 1046.7 672.7 1044.5C672 1042 672 1042 672 1039Z"/>
<path fill="#000000" d="M741 860C740.4 860.2 739.7 860.5 739.1 860.7C734.2 862.7 729.4 864.7 724.8 867.3C723 868 723 868 719 868C719 867 719 866 719 865C722.3 864 725.6 863 728.9 861.9C729.8 861.6 730.7 861.3 731.7 861C732.6 860.8 733.5 860.5 734.4 860.2C735.3 860 736.1 859.7 736.9 859.4C739 859 739 859 741 860Z"/>
<path fill="#FFFFFF" d="M679 999C682 1000 684.9 1001 688 1002C688 1004.6 688 1007.3 688 1010C687.5 1009.6 687.1 1009.2 686.6 1008.7C686 1008.2 685.3 1007.6 684.7 1007.1C684.1 1006.5 683.5 1006 682.8 1005.4C681 1004 681 1004 678 1003C678.3 1001.7 678.7 1000.4 679 999Z"/>
<path fill="#000000" d="M845 859C846 859.3 847 859.7 848 860C848 863 848 865.9 848 869C846.3 869 844.7 869 843 869C842 868 842 868 841.8 864.6C841.8 863.4 841.9 862.2 842 861C843 860.3 844 859.7 845 859Z"/>
<path fill="#FFFFFF" d="M526 1058C529 1059 529 1059 530.2 1061.4C531 1064 531 1064 531 1067C527.3 1066.5 525.4 1065.9 523 1063C524 1061.3 525 1059.7 526 1058ZM840 1022C840 1024.3 840 1026.6 840 1029C836 1028.4 833.3 1027.2 830 1025C830.3 1024.3 830.7 1023.7 831 1023C832.8 1022.6 832.8 1022.6 835 1022.4C835.7 1022.3 836.4 1022.2 837.2 1022.1C838.1 1022.1 839.1 1022 840 1022Z"/>
<path fill="#000000" d="M755 870C755.6 871.8 755.6 871.8 756 874C752.8 877.8 749.2 880.4 745 883C745.5 878.9 747.6 877 750.6 874.2C751.4 873.5 752.2 872.7 753.1 871.8C753.7 871.2 754.3 870.6 755 870Z"/>
<path fill="#FFFFFF" d="M91 1063C92 1063.3 93 1063.7 94 1064C94.3 1066.6 94.7 1069.3 95 1072C93 1072 91 1072 89 1072C89 1069.4 89 1066.7 89 1064C89.7 1063.7 90.3 1063.3 91 1063ZM184 1049C185.3 1049 186.6 1049 188 1049C189.4 1053.3 188.2 1055.7 187 1060C186 1060 185 1060 184 1060C184 1056.4 184 1052.7 184 1049ZM989 1036C990.9 1036.2 990.9 1036.2 993 1037C994.2 1039.1 994.2 1039.1 995 1041C992.2 1042.1 992.2 1042.1 989 1043C988 1042.3 987 1041.7 986 1041C987.9 1037.1 987.9 1037.1 989 1036ZM548 1064C548.3 1065 548.7 1066 549 1067C543.2 1070 543.2 1070 541 1070C540 1067 540 1067 541 1064C544.1 1063 545.1 1062.8 548 1064ZM1021 1043C1023.6 1043 1026.3 1043 1029 1043C1029 1044.7 1029 1046.3 1029 1048C1026.4 1048 1023.7 1048 1021 1048C1021 1046.3 1021 1044.7 1021 1043ZM960 1036C960 1037.3 960 1038.6 960 1040C956.7 1040 953.4 1040 950 1040C950 1039 950 1038 950 1037C953.8 1035.2 955.9 1034.8 960 1036ZM861 1025C861.6 1026.9 861.6 1026.9 862 1029C861 1030 861 1030 857.4 1030.1C856.3 1030 855.2 1030 854 1030C853.7 1028.7 853.3 1027.4 853 1026C855.9 1025 858 1024.9 861 1025ZM762 1011C761.8 1013.3 761.8 1013.3 761 1016C758.4 1017.8 758.4 1017.8 756 1019C755 1018 755 1018 754.9 1014.9C755 1014 755 1013 755 1012C757.5 1011.3 759.4 1011 762 1011Z"/>
<path fill="#000000" d="M735 869C738.3 869 741.6 869 745 869C742 872.3 739.1 874.2 735 876C735 873.7 735 871.4 735 869Z"/>
<path fill="#FFFFFF" d="M62 1067C65.7 1067.7 65.7 1067.7 67 1069C67 1070.7 67 1072.3 67 1074C65 1074 63 1074 61 1074C61 1072 61 1070 61 1068C61.3 1067.7 61.7 1067.3 62 1067Z"/>
<path fill="#000000" d="M699 887C700 887.6 700.9 888.2 701.9 888.8C705.5 890.9 709.1 892.1 713.1 893.2C715 894 715 894 717 897C705 894.2 705 894.2 700 890C699.7 889 699.3 888 699 887Z"/>
<path fill="#FFFFFF" d="M1006 1040C1009.9 1040.9 1009.9 1040.9 1011 1042C1011 1044 1011 1046 1011 1048C1009.4 1048 1007.7 1048 1006 1048C1006 1045.4 1006 1042.7 1006 1040ZM515 1014C517.3 1017.4 517.2 1019 517 1023C515 1023.7 513 1024.3 511 1025C511.5 1023.5 512 1022.1 512.4 1020.6C512.7 1019.8 513 1019 513.2 1018.2C514 1016 514 1016 515 1014ZM456 1011C458.3 1011 460.6 1011 463 1011C462.3 1013.4 462.3 1013.4 461 1016C458.4 1016.8 458.4 1016.8 456 1017C456 1015 456 1013 456 1011Z"/>
<path fill="#000000" d="M364.1 900.9C364.5 900.9 364.5 900.9 367 901C365.6 903.9 364.1 906.5 362 909C361.3 909 360.7 909 360 909C360 906.7 360 904.3 360 902C361 901 361 901 364.1 900.9Z"/>
<path fill="#FFFFFF" d="M970 1037C971.6 1037.3 973.3 1037.7 975 1038C975.3 1039.3 975.7 1040.6 976 1042C973.2 1042.6 970.8 1043 968 1043C968.7 1041 969.3 1039 970 1037ZM319 1030C321.3 1030 323.6 1030 326 1030C325.7 1032 325.3 1034 325 1036C324 1036 323 1036 322 1036C321 1034 320 1032 319 1030ZM872 1026C874.3 1026.7 876.6 1027.3 879 1028C878.7 1029.3 878.3 1030.6 878 1032C876 1032 874 1032 872 1032C872 1030 872 1028 872 1026Z"/>
<path fill="#000000" d="M402 869C399.8 871.2 397.9 872 395 873.2C394.1 873.6 393.2 873.9 392.3 874.3C390 875 390 875 388 874C392.9 870 395.4 868.3 402 869Z"/>
<path fill="#FFFFFF" d="M215 1043C216.3 1043 217.6 1043 219 1043C221.1 1049.8 221.1 1049.8 220 1052C219.3 1052 218.7 1052 218 1052C217 1049 216 1046.1 215 1043ZM716 1005C717.6 1008 718.4 1010.7 719 1014C717.4 1013.7 715.7 1013.3 714 1013C714.9 1006.1 714.9 1006.1 716 1005Z"/>
<path fill="#000000" d="M219 922C219 924 219 926 219 928C218 929 218 929 214.9 929.1C214.5 929.1 214.5 929.1 212 929C212 927 212 927 214.4 924.4C217 922 217 922 219 922Z"/>
<path fill="#FFFFFF" d="M566 1064C567.6 1064 569.3 1064 571 1064C570.5 1067.8 568.8 1069.5 566 1072C566 1069.4 566 1066.7 566 1064ZM306 1030C306.7 1030 307.3 1030 308 1030C309 1032.8 309 1033.9 308.1 1036.8C307.7 1037.5 307.4 1038.2 307 1039C305.4 1037.8 305.4 1037.8 304 1036C304.4 1031.6 304.4 1031.6 306 1030Z"/>
<path fill="#000000" d="M195 937C198.3 937 201.6 937 205 937C204 939 204 939 201.6 940.1C199 941 199 941 196 941C195.7 939.7 195.3 938.4 195 937ZM769 887C771.3 887.3 773.6 887.7 776 888C776.3 889 776.7 890 777 891C774.4 891 771.7 891 769 891C769 889.7 769 888.4 769 887ZM379 887C379 888.3 379 889.6 379 891C375.7 891 372.4 891 369 891C371.7 888.3 375.1 887 379 887Z"/>
<path fill="#FFFFFF" d="M123.2 1060.1C125 1061 125 1061 126 1064C122.7 1064 119.4 1064 116 1064C120.4 1060 120.4 1060 123.2 1060.1ZM150 1057C152.5 1058.2 154 1059 156 1061C154 1062 152 1063 150 1064C150 1061.7 150 1059.4 150 1057ZM812 1017C814.3 1017.1 814.3 1017.1 817 1018C818.8 1021.6 818.8 1021.6 820 1025C815.8 1023.5 814.3 1020.7 812 1017ZM380 1023C381.6 1023 383.3 1023 385 1023C385 1023.7 385 1024.3 385 1025C385.7 1025 386.3 1025 387 1025C386.7 1026.3 386.3 1027.6 386 1029C382.3 1027.8 381.8 1026.4 380 1023Z"/>
<path fill="#000000" d="M277 902C277.7 903 278.3 904 279 905C271.2 904.2 271.2 904.2 269 902C272.3 900.9 273.7 901 277 902ZM828 849C831 850 833.9 851 837 852C836.7 853.3 836.3 854.6 836 856C834.7 855 833.3 854 832 853.1C831.3 852.5 830.5 852 829.8 851.4C829.2 850.9 828.6 850.5 828 850C828 849.7 828 849.3 828 849Z"/>
<path fill="#FFFFFF" d="M601 1064C601.8 1064.2 601.8 1064.2 606 1065C606 1067 606 1069 606 1071C604.3 1069.4 602.6 1067.7 601 1066C601 1065.3 601 1064.7 601 1064ZM102 1061C102.7 1061.3 102.7 1061.3 106 1063C106 1064.3 106 1065.6 106 1067C104.7 1067 103.4 1067 102 1067C102 1065 102 1063 102 1061ZM393 1017C397.9 1017.9 397.9 1017.9 399 1019C399 1020.7 399 1022.3 399 1024C394.1 1019.2 394.1 1019.2 393 1017Z"/>
<path fill="#000000" d="M308 912C309.6 912 311.3 912 313 912C312 915 311 917.9 310 921C309.3 921 308.7 921 308 921C308 918 308 915.1 308 912ZM725 864C724.3 865.3 723.7 866.6 723 868C721.7 868 720.4 868 719 868C719 867 719 866 719 865C722 864 722 864 725 864ZM448 866C449.3 867 450.6 868 452 869C448.4 869 444.7 869 441 869C445 867 445 867 448 866Z"/>
<path fill="#FFFFFF" d=""/>
</svg>
